<svg xmlns="http://www.w3.org/2000/svg" viewBox="0 0 750 750"><path d="M659.24 706.09a11.77 11.77 0 01-5.12-.05c-4.09-.68-8.23-1-12.29-1.81-1.8-.37-3.63-.31-5.46-.62a42.73 42.73 0 01-10.37-3.49 12 12 0 00-3.87-1.42 9.09 9.09 0 01-5.21-2.22c-2-1.57-4.38-2.75-6.15-4.68-1.28-1.4-2.76-1.37-4.51-.84-3.42 1-6.82 2.23-10.5 2-1.17-.06-2.31.48-3.52.58a43.19 43.19 0 01-12.33-.46c-2-.39-4-.07-6-.64a19.25 19.25 0 01-8.26-5.31c-1.37-1.36-2.58-3.43-1.49-5.74a4.15 4.15 0 00.34-2.69 4.42 4.42 0 011.76-4.39c1.54-1.32 3.17-2.53 4.73-3.81a3.12 3.12 0 011.47-.72 17.28 17.28 0 003.87-1.24c1.45-.59 3.26-.33 4.92-.38 1.29 0 2.59.07 3.88 0 1.63-.05 2.18-.85 1.23-2-2.8-3.41-5.74-6.51-10.16-8.16-3.62-1.36-7.35-1.44-11-2.21a3.16 3.16 0 00-1.89.21c-1.7.69-3.48.37-5.21.23a3.08 3.08 0 01-2.75-3.76c.74-2.82.06-5.46-.48-8.16a8.65 8.65 0 01-.26-2.2c.28-3.71-1.92-6.2-4.17-8.67-.43-.47-1.07-.77-1.3-1.41-1.08-3-3.91-4.22-6.24-5.93a3.18 3.18 0 00-3.6-.26c-2.87 1.42-6.18 1.71-8.94 3.49-.5.32-1.25.23-1.87.4-1.5.39-3.1.52-4.37 1.7.26 1.64 2.16 1.91 2.69 3.33a15.36 15.36 0 002.52 3.6 5.14 5.14 0 01.71.86c2 4.52 6 7.38 9.21 10.94a12.85 12.85 0 013.56 9.52c0 .64.09 1.29.1 1.93 0 1.91-.12 2-2 2.6a17.31 17.31 0 00-6.17 3c-1.48 1.24-1.48 1.74-.52 3.47a4.23 4.23 0 01.58 1.24c.46 3 2.75 4.5 4.88 6.06a27.6 27.6 0 015.66 5.6c-3.82-1.19-7.23-1.8-10.21-3.29a16 16 0 01-8.45-9.06 2.66 2.66 0 01-.19-1.9c1.58-3.64 2.15-8 6.45-9.85 1.12-.49 1.3-1.32.73-2.5-.72-1.47-.93-3.2-2.44-4.24-.56-.38-.53-1.15-.7-1.76s-.27-1.56-.92-2c-1.4-.88-2-2.34-2.7-3.66-1.2-2.12-3.3-3.39-4.82-5.21a37 37 0 00-12.35-9.75c-3.12-1.52-6.45-1.33-9.71-1.77-1.72-.23-3.52.06-5.26-.12-2.24-.22-4.17.71-6.14 1.43-1.74.63-1.86 1.62-.68 3.15s2.33 3.11 3.62 4.55a11.72 11.72 0 012.78 9.48c-.18 1.87.83 3.58 1.55 5.22a16.41 16.41 0 01-.06 13.66 8.64 8.64 0 00-.89 2.62 4.86 4.86 0 01-1.53 3.19c-1.67 1.47-2.63 3.54-4.35 5a2.57 2.57 0 00-1 1.92c0 1.32-.62 2.49-.73 3.76-.26 3.24-1.77 6-3.53 8.59a4.29 4.29 0 01-2.13 1.67c-2.43.79-4.9 1.78-7.54 1.16a31 31 0 01-3.27-.53c-1.45-.5-1.81.13-1.91 1.37a4.21 4.21 0 00.3 2.16 30 30 0 009.74 12.19c2.54 1.83 5.08 4 8.33 4.73 1.43.31 2.26 2 3.94 1.73a2.23 2.23 0 00-.33-2.37c-1.43-2.17-2-4.66-3-7-.25-.59-.75-1.22-.69-1.78.36-3.35.36-6.79 2.92-9.52a25.59 25.59 0 017-5.58 31.81 31.81 0 0112.37-3.2 9.44 9.44 0 003.15-1c1.48-.68 2.9-1 4.46 0a4.86 4.86 0 003.21.67c3.51-.44 6.94.21 10.4.61a113.86 113.86 0 0112.73 2.43c2.93.67 6 1 8.57 2.83a2.7 2.7 0 001.58.41c2.91-.1 5.15 1.7 7.7 2.55 3 1 5.56 3.14 9 3.21a8.94 8.94 0 014.84 1.69 6.05 6.05 0 003.07 1.18c2.51.16 4.85 1.11 7.32 1.42a3.83 3.83 0 011.09.17c4.68 2.13 9.72 2.52 14.7 3.38 2.53.43 5.32.47 7.55 2.24a5.56 5.56 0 003.65 1.14c2.68-.12 5.33.28 8 .42a18.51 18.51 0 019.2 2.59 19 19 0 01-6.81 1.43c-2.91.22-5.89 0-8.77.3a92.9 92.9 0 01-13.24.11 11.3 11.3 0 01-3.48-.8 18.57 18.57 0 00-8-1.59c-2.4.16-4.87-.72-7.34-1-2.71-.36-5.33-1.36-8.12-1.33a6.24 6.24 0 01-3.6-1.22 16.63 16.63 0 00-7-2.25c-.45-.06-1 0-1.36-.18-2.9-1.76-6.44-1.69-9.37-3.22-2.44-1.28-5-2.41-7.39-3.68a27.36 27.36 0 00-9-2.67c-3.83-.55-7.68-1.12-11.48-1.53-5.32-.57-10.89-1.27-16.14.61-2.82 1-5.8 1.85-8.17 3.88a8.18 8.18 0 01-1.42.87 4.84 4.84 0 00-2.57 5.19c.78 6.54 4.94 10.42 10.31 13.39a2.57 2.57 0 01.5.24 23.6 23.6 0 008.75 5 11.18 11.18 0 01-6.33 1c-5.9-.89-11.85-1.37-17.66-3.07-3.8-1.1-7.49-2.52-11.28-3.61a15.72 15.72 0 01-7-4.27 2.44 2.44 0 00-.62-.54c-3.11-1.61-5.22-4.37-7.37-6.94-3.07-3.67-5.25-7.77-3.86-13 .6-2.22.87-4.49 2.23-6.46a2.19 2.19 0 012.81-1 28.66 28.66 0 007.93 1h1.93a7.46 7.46 0 008-5.58 3.39 3.39 0 00-.29-2.65c-1-1.75-1.78-3.63-3.33-5 .44-1 1.42-1 2.07-1.46a12 12 0 005.23-8.95c.19-1.91.47-3.8.55-5.73a8 8 0 00-.81-4.49c-1.61-3-1.73-6.36-2.94-9.45-.8-2-1.48-4-3.48-5.13a6.55 6.55 0 01-1.63-1.85c-2.35-2.87-4.76-5.65-8.74-6.25a3 3 0 01-.75-.34 17.28 17.28 0 00-12.24-1 34.42 34.42 0 01-6 .75 5.41 5.41 0 00-3.47 1.51c-1.07 1-2.29 1.86-3.43 2.79a5.75 5.75 0 00-2.15 2.81c-.32 1.15-.95 1.57-2 .91-3.1-1.86-6.34-1.56-9.65-.71-2.89.74-5.64 4.46-5.51 7.45a3.87 3.87 0 00.91 2 12.06 12.06 0 011.86 6.82c0 .46 0 1-.5 1.22-.64.27-1-.29-1.28-.74-2.86-4.88-7.59-6.4-12.74-7.17a1.9 1.9 0 00-1.09.07c-2.38 1.31-5.12 1.95-7.26 3.71-1.78 1.46-3.65 2.87-4.22 5.3a.66.66 0 01-.31.45c-2.29 1-1.6 3-1.63 4.69 0 .37.16.74.13 1.1-.22 2.65.93 4.23 3.24 5.64 2.05 1.25 3.71 3.19 5.66 4.68a8.23 8.23 0 002.31 1.49c3.46 1.18 5.94 3.86 8.93 5.74s5.31 4.15 8.23 5.91a43.61 43.61 0 017.33 5.11c4.62 4.35 10.21 7.15 15.34 10.66a26.55 26.55 0 004 1.82 2.61 2.61 0 011.55 1.5 1.57 1.57 0 01-1.61 2.23 24.58 24.58 0 01-9.16-2.42c-2.79-1.31-5.45-3.16-8.65-3.46-1.11-.1-1.81-.88-2.68-1.36-3.62-2-7.25-4-10.76-6.14a80.47 80.47 0 01-6.67-4.86 4.39 4.39 0 00-2.15-1.18c-2.23-.18-3.64-1.65-5.14-3a6.18 6.18 0 00-1.91-1.57c-3.84-1.43-6.7-4.44-10.29-6.34a24.21 24.21 0 01-6-5.19c-1.77-2-4-3.22-5.93-4.86a23 23 0 01-3.19-3.05 7.48 7.48 0 00-3.9-3 1.64 1.64 0 01-.93-.53c-2.12-2.83-5.44-4.37-7.63-7.12a5.12 5.12 0 00-1.83-1.22 6.84 6.84 0 01-3.23-2.9 4.4 4.4 0 00-2.29-2c-3.64-1.52-6.28-4.47-9.47-6.64-1.72-1.17-3.71-2.06-5.08-3.74a1.48 1.48 0 00-1.27-.45c-1.3.08-2.26-.7-3.27-1.32a27.47 27.47 0 00-6.44-3.09 5 5 0 01-1.94-1c-1.92-1.83-4.3-1.67-6.54-1.39a5.74 5.74 0 00-4.32 3.13c-2.1 3.78-2.68 7.59-1 11.66a3.77 3.77 0 00.94 1.65c2.28 1.87 4.21 4.16 6.71 5.78a6.75 6.75 0 011.28 1.05 2.3 2.3 0 01.41 2.58c-.33.9-1.09 1.11-2 1.27a5.94 5.94 0 01-6.45-2.73c-1.53-2.47-3.86-4.19-5.43-6.57-.25-.39-.71-.7-.82-1.11-1.07-4.06-4.9-4.57-7.92-5.57-2.43-.8-4.81-1.75-7.16-2.69-4.45-1.77-8.87-3.63-13.43-5.09a6.77 6.77 0 01-3.19-1.55 3.62 3.62 0 00-2-.8 21.61 21.61 0 01-7.31-2.44 8.33 8.33 0 00-3.16-.91 28.89 28.89 0 01-5.61-1.37c-1.42-.54-3.08-.41-4.61-.72-2.67-.53-5.15-2-8.06-1.43a3.45 3.45 0 01-2.11-.56 3.67 3.67 0 00-2.67-.34 3.18 3.18 0 01-1.34.17c-4.1-1.23-7.93.18-11.77 1.24-2.63.72-3.41 3.22-2.1 5.67 1.69 3.13 3.73 5.73 7.14 7.36 3 1.45 5.64 3.81 8.76 5.26a7 7 0 012.87 2.94 18.68 18.68 0 012.64 11.38 13.62 13.62 0 01-2.31 6.41c-1.36 2-3.61 2.4-5.67 3.17-5.13 1.93-9.57-.37-14.07-2.23-2.45-1-4.75-2.47-7.18-3.44a22.68 22.68 0 00-8-1.82c-5.9-.1-11.81-.09-17.71-.21a2.29 2.29 0 00-2.48 2.08 14.45 14.45 0 01-4 7.14c-1 1.06-1 2.81-2.39 3.66a20.31 20.31 0 00-3.32 2.89c-2.5 2.43-5.71 4-7.81 7a5.85 5.85 0 01-2.1 1.3 88.35 88.35 0 00-12.64 7.3 45.44 45.44 0 01-7.6 4.22 46.46 46.46 0 01-7.59 2.48 17.52 17.52 0 00-4.65 1.68 6.35 6.35 0 01-3.17.88c-3.2 0-6 1.57-9 2.15-2.57.49-5.07 1.33-7.73 1.24a3.33 3.33 0 00-1.09.14c-4.15 1.33-8.53 1.14-12.76 2a62.09 62.09 0 01-12.88 1.09c-5.31 0-10.63.27-16 .51-2.76.12-5.55-.39-8.29.27a2.07 2.07 0 01-1.6-.32 1.37 1.37 0 01-.71-1.12c-.05-.62.43-.72.88-.85 3.09-.89 6.2-1.71 9.24-2.77a32.44 32.44 0 0111.7-1.44c1.82 0 3.7-.91 5.63-1.1 3.48-.36 6.69-2.2 10.17-2.17s6.13-1.84 9.36-2.09a7.47 7.47 0 003.24-1.36c1.74-1.11 3.87-1.54 5.81-2.3a55.92 55.92 0 0110.52-3.32c.27 0 .64-.08.78-.26 1.86-2.51 5.13-2.38 7.46-4 .08 0 .16-.13.24-.13 3.25-.22 6-2.09 9.06-2.75a11.51 11.51 0 005.32-2.66 4.2 4.2 0 012.37-1.31c2.25-.17 4-1.45 5.59-2.81a5.41 5.41 0 012.91-1.45c1.83-.17 3-1.25 4.24-2.38a49.21 49.21 0 007.59-9.49 6.75 6.75 0 001.2-4.16 7.23 7.23 0 012.46-5.67c.27-.25.55-.59.87-.65 3.32-.62 6.42-2.4 10-1.66 2 .41 4 .15 6 .3 3.22.26 6.06 1.56 9.09 2.26a7.38 7.38 0 001.59.43c4.19 0 8.1 1.47 12.15 2.12 3 .48 5.43 2.28 8.39 2.42 2.72.12 5.46.91 8.19.09 1.61-.48 1.68-.69.79-2A6.76 6.76 0 00245 651c-3.73-2.08-6.7-5.16-10.16-7.58a27.44 27.44 0 01-7.65-7.8 14.27 14.27 0 01-1.5-13.43 8.39 8.39 0 015.23-5.29 39.19 39.19 0 004.19-2.12 6.73 6.73 0 013.73-.87 4 4 0 001.38-.06c5.4-1.3 10.73-.41 16.13.19 3.54.4 6.7 1.94 10.15 2.49 1.71.27 3.51-.2 5.15.77 2.7 1.6 5.74 2.47 8.59 3.74 2.55 1.14 5.33 1.38 8 2.16 6.41 1.88 13 3.12 19.09 6.1 2.15 1.06 2.22.94 3.34-1.23a5.8 5.8 0 00.79-1.77c.42-3.42 2.74-5.28 5.5-6.74a10.89 10.89 0 001.71-1.34 9.64 9.64 0 017.47-2.15c2.16.25 4.28 1 6.52.68a2.25 2.25 0 011.55.48c2.55 1.64 5.17 3.17 7.65 4.91 1.49 1 3.29 1.45 4.66 2.81.85.84 2.5.59 3.71.06a33 33 0 003.52-1.55 9.13 9.13 0 014.91-1.64c1.28.06 2.29-.71 3.31-1.27a6.46 6.46 0 013.66-1.07c1.57.13 2.79-.89 4.15-1.34 5.2-1.72 10.65-2.63 15.7-4.86a36.68 36.68 0 015.78-1.85c1.82-.47 3.26-1.72 5.1-2a1 1 0 00.93-.91c0-.54-.41-.74-.88-.89a38.56 38.56 0 00-4.79-1.06c-3.22-.55-6.44-.25-9.58-.62a40.86 40.86 0 01-6.73-1c-2-.6-4.36-.38-6.55-.78-3.49-.62-7-1-10.56-1.41a84.64 84.64 0 00-9.33-.81c-3.66-.05-7.35 0-11-.18s-7.52-.45-11.31-.23a102.12 102.12 0 01-11.33-.29c-2.11-.11-4.21-.64-6.31 0a1.45 1.45 0 01-.55 0c-5-.59-9.89.46-14.83.48a44.73 44.73 0 00-7.67.68c-2.81.49-4.49-.62-5-3.5-1-5.54-3.72-10.39-5.9-15.44-.88-2-1.55-4.14-2.33-6.2a119.59 119.59 0 01-4.87-14.83c-.68-2.92-1.92-5.72-2.82-8.6-.68-2.15-1.66-2.72-4-2.3a43.51 43.51 0 01-10.67.81c-5-.34-10.15 0-14.7-2.91a14 14 0 00-3.94-1.28 9.5 9.5 0 01-7.17-7.23c-.3-1.16-.71-2.29-1-3.46-1.26-5 .4-9.5 2.79-13.83 1.37-2.5 2.46-5.16 3.93-7.59 2.14-3.54 4.51-6.94 6.77-10.4 1.05-1.63 1.82-3.54 3.17-4.85 1.95-1.89 2.74-3.64 1.18-6.11-.3-.48-.11-1.26-.16-1.9s.07-1.71-.47-2.12c-2.1-1.56-1.81-4.12-2.8-6.13a14.6 14.6 0 00-1.53-2.93 5.07 5.07 0 01-1.22-3.32 7.11 7.11 0 00-1.49-4.1c-.36-.54-.93-1-1-1.63-.5-3.24-2.46-5.94-3.3-9-.35-1.28-1.38-2.25-1.71-3.38-1.26-4.37-3.71-8.23-5-12.52-.5-1.62-1.55-2.85-2.16-4.37-1.08-2.69-1.45-5.72-3.43-8.06a3.69 3.69 0 01-.82-2.31 4.09 4.09 0 00-1.14-2.76 5.1 5.1 0 01-1.13-2.49 2.64 2.64 0 00-.44-1.29c-2.63-2.46-2.52-6.33-4.71-9-.48-4-3.28-6.95-4.51-10.6a25.5 25.5 0 00-2.94-5.25 4.68 4.68 0 01-1.05-3.06c.07-.64.15-1.43-.3-1.87-2-2-2.73-4.75-4.29-7-.65-.94-.88-2.05-1.45-3-2.21-3.61-3.55-7.64-5.43-11.41-.77-1.55-2.13-2.52-2.85-4-2-4.24-4.66-8.15-6.8-12.35-1.45-2.83-3-5.68-4.52-8.5a64.7 64.7 0 01-3.44-7.23 40.09 40.09 0 00-3.58-7.4c-1.81-2.83-2.42-6.17-4.07-9.07-1.36-2.4-2.56-4.92-5.38-6a2.08 2.08 0 01-1.31-1.65 19.27 19.27 0 00-6.06-10.87 3.14 3.14 0 01-1.14-3c.68-3.66-1.55-6.27-3.1-9.13a5.8 5.8 0 01-.59-.93c-1.06-3.38-3.54-5.52-6.34-7.39-1.4-.93-2.44-2-1.67-3.87-1.28-2.39-.42-5.76-3.43-7.37-.45-.24-1-.83-1-1.26.05-3.29-1.87-5.66-3.66-8.08a42.6 42.6 0 01-4.52-8.74 92.72 92.72 0 00-4.62-8.77c-.09-.16-.14-.42-.27-.46-3-1.1-1.42-4-2.26-5.89a1.25 1.25 0 01.22-1c2.13-2.52 3.53-5.53 5.78-8 2.85-3.16 5.71-6.42 7.59-10.38.76-1.61 2.15-2.88 3.16-4.39 1.74-2.58 3.67-5.06 5.59-7.52s4.51-4.1 5.62-7c.1-.26.24-.59.45-.69 3.55-1.65 4.51-5.67 7.36-8.05a9.62 9.62 0 003.28-4.32 3 3 0 011.14-1.54c2.19-1.31 3.23-3.74 5.23-5.22a4.36 4.36 0 00.83-1.09c2.51-3.86 5-7.72 8.66-10.66a7.64 7.64 0 001.92-3.3c1-2.22 2.86-3.77 4.25-5.7 2.15-3 3.51-6.46 6-9.25 4-4.51 6.81-9.87 10.55-14.55 2-2.53 3.56-5.37 5.35-8 1.44-2.12 3.38-4.18 3.78-7 .13-.9 1-1.33 1.52-1.93a3.62 3.62 0 001.12-3.47 4.51 4.51 0 011.41-4.56c1.89-1.43 2.37-3.43 2.87-5.49a12.39 12.39 0 015.57-7.91c1.49-.93 2.63-2.34 4.34-2.94.57-.2.78-.77 1-1.28.92-2.19 2.15-4.25 2.63-6.61a6.57 6.57 0 012-3.29c3-2.9 4.52-6.7 6.41-10.25 1-1.84 1.8-3.91 2.93-5.6 2.31-3.43 3.35-7.38 5.28-10.93 1.07-1.95 1.59-4.26 3.52-5.71.52-.39.6-1.12.8-1.74 1.16-3.7 2.42-7.35 4.73-10.53a3 3 0 00.35-.74c1.49-3.76 2.38-4.33 6.32-4.1a2.67 2.67 0 00.69-.18c-.6-3.38.73-6.35 2.32-9.24a5.56 5.56 0 011.97-2.07c1.49-.84 2.26-.65 3.12.89 2.72 4.91 5.47 9.82 8 14.82C276.16 47 279 51 281.12 55.42a126.05 126.05 0 006 11.83c1.5 2.48 1.87 5.4 3.64 7.69 2.56 3.3 4 7.16 5.75 10.92 1.91 4.17 3.95 8.3 5.94 12.44 2.21 4.61 4.77 9.09 6.33 14 1.13 3.59 2.64 7.07 4 10.58a6.45 6.45 0 001 1.66 20.71 20.71 0 013.67 7.4c1.23 4.36 3.51 8.33 4.62 12.73 1.22 4.85 3.49 9.32 5.15 14 .94 2.69 1.89 5.38 2.61 8.13a33.11 33.11 0 003.05 6.68c1.5 2.9 1.91 6.14 3 9.14 1.64 4.3 3.35 8.58 4.89 12.92 1.44 4.06 3.2 8 4.1 12.29.56 2.65 2.31 5 2.58 7.84.28 3.1 1.75 5.78 2.91 8.58a3.16 3.16 0 00.74 1.16 7.16 7.16 0 012.61 6.1 25.13 25.13 0 00.91 5.46 6.5 6.5 0 002.16 4.07 3 3 0 011.13 2.44c.06 3.87 1.41 7.36 3 10.8 1.05 2.24 1.6 4.69 2.42 7 1.7 4.86 3.73 9.6 5.47 14.45 2.26 6.34 4.92 12.55 6.54 19.09.6 2.47 1.08 5 1.44 7.58a71.93 71.93 0 002.23 8.81 2.43 2.43 0 00.87 1.38c1.4.83 1.68 2.24 2.3 3.57a24.1 24.1 0 011.35 5.28c1.17 5.19 2.77 10.28 4 15.47 1.08 4.76 2.62 9.39 3.68 14.14a12.3 12.3 0 00.93 2.59c.88 1.9 2 3.7 1.52 6a4.79 4.79 0 00.46 2.14c.64 2.19 2.08 4.08 2.16 6.51 0 1 1 1.71 2.08 1.95 1.43.3 1.83-.07 1.47-1.55-1-4.19-2.36-8.33-3-12.57-.48-3.27-2-6.1-2.77-9.14-.69-2.6-1.51-5.23-2-7.92-.93-4.84-1.11-9.88-3.14-14.49-.66-1.5-.41-3.1-.61-4.64a87.69 87.69 0 00-2.44-10.76c-1-3.84-2.89-7.38-3.42-11.34a2.47 2.47 0 00-.24-.8c-2.37-4.34-2.95-9.23-4.26-13.9-.72-2.55-1-5.22-1.53-7.8-.57-2.8-1.2-5.77-2.87-8.26a6.26 6.26 0 01-1.27-4.92 2.63 2.63 0 00-1.4-3.25 1.57 1.57 0 01-.91-1.32c-.28-3.56-2.37-6.56-3.09-10-.62-3-2.58-5.28-3.37-8.15a41 41 0 00-2.18-7.1 70.86 70.86 0 01-4-9.64c-.84-2.72-1.5-5.53-3.06-8a19 19 0 01-3-7.63 4.89 4.89 0 00-.92-1.68 4 4 0 01-.92-1.68c-.34-3.59-2.55-6.48-3.81-9.72-.76-2-1.65-3.9-2.3-5.91a16.69 16.69 0 00-1.6-3.82 6.64 6.64 0 01-1-2.85 2.79 2.79 0 00-.3-1.34c-2.17-2.86-2.54-6.47-3.92-9.66-1.86-4.3-3.31-8.79-4.81-13.24-1.16-3.48-2.1-7-3.2-10.54-1.21-3.87-2.44-7.74-3.79-11.56a24.27 24.27 0 00-2.19-4.46c-2.07-3.35-2.92-7.17-4.37-10.75-1.31-3.25-2.51-6.53-3.77-9.79a2.59 2.59 0 00-.44-1c-3.72-3.45-4.6-8.55-7.32-12.59a6.05 6.05 0 01-1.2-4.18 2.33 2.33 0 00-.2-1.33c-1.45-2.87-2.58-5.84-4.46-8.55a60 60 0 01-6-11.15c-1.39-3.38-2.76-6.77-4.16-10.14-.92-2.21-2-4.37-2.78-6.63-1.07-3.16-2.82-6-4.16-9a7.66 7.66 0 00-2.1-2.9c-2.34-1.82-2.93-4.62-4.24-7-.89-1.64.53-4.37 2.3-4.89.63-.19 1 .26 1.5.49 2 .89 2.83 2.87 4.17 4.35 2.32 2.6 4.47 5.35 6.57 8.13 1.93 2.56 3.83 5.12 4.32 8.51a10.3 10.3 0 002.59 5.12c2.36 2.76 4.95 5.51 6 9 1 3.17 2.58 6.06 3.64 9.14a10 10 0 003 5 4.35 4.35 0 011.27 2.1 6.14 6.14 0 001.16 1.85c1.81 2.25 3.17 4.72 3 7.74a6.2 6.2 0 00.93 3.93 36.74 36.74 0 013.54 8.25c.64 1.92 1.41 3.78 2.19 5.65 1 2.43 2.59 4.72 2.5 7.56a4.34 4.34 0 00.78 2.35c2.74 4.1 3.27 9.07 5.3 13.42 1.56 3.33 3 6.75 4.79 10a26.33 26.33 0 012.47 6.95 5.35 5.35 0 00.82 2.33c1.33 1.45 1.45 3.31 1.91 5a26.7 26.7 0 002.34 5.54c1.47 2.87 3.51 5.4 4.11 8.86a45.56 45.56 0 003.93 11.14c1.58 3.43 4.08 6.31 5.38 9.86a18.37 18.37 0 011.44 4.17 7.2 7.2 0 00.54 1.86c1.48 3.45 3.09 6.84 4.46 10.33 1.23 3.13 2.67 6.15 3.23 9.59.47 2.82 2.09 5.46 3.26 8.16a5.48 5.48 0 01.65 1.51c.17 1.93 1 3.69 1.45 5.55A173 173 0 00378 252c.87 2.61 1.52 5.23 3 7.63 1 1.53.61 3.58.49 5.41a6.5 6.5 0 000 2.2c1.29 4.59 2.35 9.26 5 13.39 1.82 2.89 3.71 5.78 3.26 9.47a1.29 1.29 0 00.1.54c1.48 4.17 2.24 8.52 3.34 12.78s2.53 8.67 3.88 13c1 3.16 1.77 6.38 2.88 9.51a42 42 0 011.8 7.78 38.77 38.77 0 001.17 4.81c1.05 3.61 2.05 7.26 2.74 11 .66 3.54 2 6.87 2.84 10.33s1.6 6.8 2.36 10.2c.7 3.12.44 6.45 2 9.4a6.77 6.77 0 01.61 3.25 5.05 5.05 0 001.07 3.49c3.25-1.17 6.59-2.21 9.78-3.59a52.6 52.6 0 015.7-2.07c1.47-.44 2.24-1.1 2.38-2.58.23-2.48 1.6-4.56 2.88-6.51 1.63-2.49 4.47-3.28 7.33-2.76 3.41.62 6.9 1 9.94 3.1 1.94 1.36 4.52 1.22 6.71.46 5.06-1.76 10.3-2.79 15.41-4.31 2.2-.65 4.56-.59 6.83-1a69.55 69.55 0 019.33-.94 27.25 27.25 0 018.38 1.34 13 13 0 002.57.77c2.58.21 3.83 1.46 4.6 4 .63 2 1.45 4 .32 6.13-.39.74 0 1.44 1 1.46 1.57 0 3.14.08 4.71.16 1 0 1.31-.49 1.42-1.33.36-2.75 2-4.93 3.34-7.23.28-.47.57-.94.84-1.41a1.34 1.34 0 00-.79-2.18c-3.3-1.09-6.36-2.75-9.88-3.36a25.58 25.58 0 01-8.78-3 30.49 30.49 0 00-10.2-3.36c-4-.69-7.76-2.34-11.78-2.94-2.63-.39-5.16-1.3-7.88-1.22-2.11.06-4-1.06-6.14-1.33-1.37-.17-1.88-1.94-2.64-3a36.16 36.16 0 01-2.35-4.65c-.24-.5-.58-1-.23-1.56.9-1.41-.06-2.23-.71-3.39a38.21 38.21 0 01-2.93-6.89c-1.31-4-2.79-8-4.23-12-1.22-3.35-2.47-6.7-3.56-10.1a9.2 9.2 0 00-4.47-5.7 7.45 7.45 0 01-3.76-5.85 16.24 16.24 0 00-2.09-5.63 26 26 0 01-3-7 5.76 5.76 0 00-1.53-2.9c-1.42-1.48-2.3-3.33-3.55-4.92-2.11-2.7-2.3-5.95-2.61-9.15-.14-1.51 1.4-1.78 2.3-2.47s1.7-.36 2.55.2a20.58 20.58 0 015 5.49c1 1.39 1.8 1.43 3.19.94 1.19-.42 2.45-1 3.78-.46a1.06 1.06 0 001.42-.47 2.94 2.94 0 013.6-1.33 4.39 4.39 0 004.29-1.22 3.67 3.67 0 014.83-.35c1.52 1 3.31 2 4.18 3.86.7 1.53 1.22 1.57 2.45.29 1.09-1.11 2.41-2 3.12-3.49a6.67 6.67 0 012.31-2.35c2.35-1.64 4.78-.81 5.75 1.9 1.37 3.81 1.64 7.52-.78 11.09-1.59 2.34-2.29 5.25-4.67 7.1a3.69 3.69 0 00-.89 1.7 30.14 30.14 0 00-1 3.44c-1.21 5.31-1.19 5.31 1.44 10.11 1.11 2 2.14 4.07 3.29 6.05a5.94 5.94 0 001.87 2.36C475.5 313.47 477 316 479 318a44.22 44.22 0 018.48 12.17 3.42 3.42 0 003.38 2.26c5.33.32 10.67.05 16 .13a11.17 11.17 0 003.57-.43 2.39 2.39 0 011.35-.17c3 1 6 .08 9 .21a16.44 16.44 0 005.64-1.09c2.16-.71 4.4-.46 6.49-1.2a2.06 2.06 0 011.1 0c4.84 1 9.89.14 14.68 1.72a16 16 0 004.4.43c.9 0 2.13.55 2.32-1.11.24-2-.18-2.81-1.87-3.19-3-.68-5.38-2-6.66-5.15-1.11-2.74-3.91-3.71-6.42-4.84a3.06 3.06 0 00-1.9.17 60 60 0 00-6.69 1.66c-2.7 1-5.44.84-8.18.85-2.36 0-4.46-1.14-6.55-2-2.3-1-3-3.32-3.73-5.53-.6-1.81-1.84-3.45-1.33-5.54.14-.61-.26-1-.84-1.27-.76-.32-1.5-.71-2.28-1a11.7 11.7 0 01-6-4.14 31.89 31.89 0 00-2.45-2.61c-2.23-2.6-1.79-5.71-1.28-8.7.27-1.58 1.79-2.32 3.29-2.61a6.1 6.1 0 015.25 1 4.55 4.55 0 004.45.65c1.71-.52 2.15-1.64 1.25-3.16a14 14 0 00-8.62-6.45c-2.54-.69-4.27-2.31-6.25-3.83-2.38-1.84-3.49-4.43-4.87-6.82a9.56 9.56 0 01-1-7.25c.43-1.66 3.54-3.8 5.35-4.11 2.75-.48 5.29.43 7.83 1.05 1.25.3 2.5.61 3.76.8 3.24.5 5.29-2.09 4.08-5.11a14.1 14.1 0 00-.9-2c-.87-1.39-1.62-2.94-3.68-3-.93 0-1.26-.59-.81-1.53.72-1.53 1.71-2.61 3.55-2.61a23.1 23.1 0 016 .69 5.3 5.3 0 013.17 2.08 4.27 4.27 0 001.31 1.4c1.3.8 1.79.62 2.09-.85.11-.54.08-1.11.23-1.64a4.34 4.34 0 013.12-3.25 22.11 22.11 0 016.88-.64 7.32 7.32 0 014.22 1.9 16.47 16.47 0 015.47 10.48 3.74 3.74 0 004 3.34 14.43 14.43 0 006.69-1c2.55-1.15 5.39-1.62 7.92-3 1.8-1 3.94-.35 5.64.39 2.58 1.12 5.11 2.53 6.57 5.23a6.19 6.19 0 011 3.39c-.06 1.09.64 1.21 1.48.87.42-.17.77-.51 1.19-.71 4.92-2.37 9.48-1.84 14 1.25 4.09 2.76 6.15 6.67 7.65 11.09a6.84 6.84 0 01.18 4.6c-.54 1.63-.47 3.27 1.38 4.31s2.36 3.21 3.17 5.05c.34.77-.1 1.43-.48 2.07a17.59 17.59 0 00-1.13 1.9 2.77 2.77 0 002.34 4c2 .22 2.3.45 2.13 2.35-.24 2.57-.59 5.13-1 7.68-.17 1.09-.43 2.16-.59 3.25a7.46 7.46 0 01-3.8 5.19c-.94.58-1.46 1.25-1.31 2.19.51 3.27-1.19 6.1-1.64 9.16-.39 2.62-2.19 4.64-2.82 7.15a2 2 0 01-1.74 1.61c-2.06 0-3.85 1.19-6 1.11-1.74-.07-2.51 1.11-1.93 2.77a5.42 5.42 0 003.15 3.51c3.25 1.43 6.11 3.41 7.65 7.07 1.44 3.43 2 7.08 3.24 10.54a5.33 5.33 0 01.16 1.92 73.42 73.42 0 01-1.06 11 3.15 3.15 0 01-.68 1.77 4.42 4.42 0 00-1.12 3.33 4.87 4.87 0 01-.67 2.93c-2.09 3.07-2.55 6.69-3.54 10.12a36.63 36.63 0 01-5.76 11.83c-2.49 3.4-5.34 6.47-7.87 9.78-2.72 3.56-6 6.8-7.8 11a14.56 14.56 0 01-1.56 2.27 14.69 14.69 0 00-2.82 9.83 62 62 0 01-.51 15.16 79.26 79.26 0 01-4.58 17 119.84 119.84 0 01-7.39 15.88 20.75 20.75 0 01-6.26 6.89c-.9.59-1.24 1.57-2.23 2.3-1.36-1.09-1.61-2.82-2.21-4.26-1.13-2.72-2.44-5.35-3.39-8.15a3.9 3.9 0 01.05-3.13c.53-1.18 1.16-2.31 1.68-3.49 1.77-4 3.2-8.27 5.37-12.09s2.71-7.78 3.84-11.73a10.7 10.7 0 01.58-1.55 61.8 61.8 0 003.6-11.85c.64-2.77 1.24-5.56 1.88-8.33a10 10 0 013.2-5.19 67.85 67.85 0 005.61-6.42c2.44-3 4.95-5.95 7.32-9 1.39-1.81 2.34-3.92 4.25-5.36.76-.57.38-1.33-.67-1.4-1.56-.11-3.13-.09-4.7-.14-.88 0-1.33.6-1.74 1.19-4.49 6.46-10.31 11.77-15.27 17.82-2.19 2.69-4.48 5.33-5.51 8.82a25.86 25.86 0 00-.73 5.16c-.34 4.08-1.76 7.88-2.4 11.87-.67 4.21-2.34 8.15-3.53 12.22a45.45 45.45 0 01-6 12.39 4.6 4.6 0 01-.32.45c-1.69 2-2 2-3.86.14-4.89-5.15-10.93-8.67-17-12.23-2.39-1.42-5-2.39-7.44-3.61a8.93 8.93 0 00-4.86-.81c-1.73.18-2.11 1.29-1.09 2.74a3.8 3.8 0 002.05 1.32 49.92 49.92 0 019.53 4.35c5.3 3.17 10.52 6.41 14.76 11a21.77 21.77 0 013 3.92c.86 1.5 2.51 2.34 3.27 4a133.31 133.31 0 016 13.65c.4 1.22-.18 1.74-1 2.25a94.75 94.75 0 00-8.24 6.42 14.41 14.41 0 01-4.17 2.67c-1.69.61-2.73 2.18-4.35 2.92-4.34 2-8.38 4.52-12.56 6.79a76.6 76.6 0 00-9 5.28c-2.84 2.08-6.11 3.4-9 5.34-.86.56-1.42.94-1.13 2.14a35.79 35.79 0 01.81 12.59c-.34 3-1.24 5.93-1.29 9a6.16 6.16 0 01-.67 2.09 19.92 19.92 0 00-1.5 8.3c.12 3.3.59 6.6.44 9.92-.09 2 1 2.81 2.76 2 2.07-1 4.28-1.55 6.23-2.93a34.43 34.43 0 0110.42-4.75 15.11 15.11 0 003.85-2c2.69-1.69 5.2-3.73 8.35-4.6.35-.09.75-.32 1.06-.24 2.95.83 5.81-.41 8.73-.48a10.71 10.71 0 007.38-3.22 6.48 6.48 0 016.69-2.11c2 .44 4.15 0 6.24-.13 3.1-.22 6.07-1.19 9.17-1.23a6.76 6.76 0 002.92-.81c5.46-2.76 13.19-4.92 19.61-6 5.59-1 11.1-2.44 16.65-3.69 2.51-.57 5-1.12 7.52-1.74 7.4-1.84 15-2.91 22.27-5.24a54.45 54.45 0 0112.14-2.55c5.87-.47 11.71-1.24 17.58-1.68.82-.06 1.64-.2 2.46-.32 2.52-.38 4.89-1 7.59-.19 2.18.63 4.74.11 7.12-.12a75 75 0 0110-.17c6.13.24 12.17 1.53 17.58 4.87a22.2 22.2 0 014.15 3.62c1.09 1.1.73 4.86-.42 6-.58.57-1.15.39-1.72-.06-.8-.62-1.62-1.22-2.43-1.83a12.93 12.93 0 00-6.53-2.71c-2.76-.29-5.13-1.93-7.78-2.71-2.45-.73-4.68-1.55-7.46-.81-2.5.68-5.31.24-8 .26s-5.55-.24-8.29 0c-3.84.38-7.69.62-11.52 1.19-5 .74-9.86 2.22-14.76 3.43-1.74.43-3.47.09-5.21.55a140.52 140.52 0 01-15.82 3.69c-5.32.76-10.32 2.67-15.58 3.54-.72.12-1.45.26-2.18.31a13.14 13.14 0 00-6.31 1.59 9.44 9.44 0 01-5.39 1 20 20 0 00-7.33 1.27c-2.76.88-5.92.94-8 3.42a.72.72 0 01-.46.26c-2.59 0-4.69 1.7-7.12 2.14-4.54.82-8.88 2.38-13.35 3.44s-8.82 2-13.11 3.33c-4.82 1.52-9.68 2.88-14.43 4.65-4.45 1.67-8.93 3.39-13.74 3.85a2.43 2.43 0 00-.82.11c-4.08 1.74-8.49 2.39-12.67 3.79a2.58 2.58 0 00-.76.33c-5.15 3.66-11.05 5-17.18 5.71a6.21 6.21 0 00-4 1.71 3.41 3.41 0 01-2.41 1.2 8 8 0 00-5.3 2.72 11.11 11.11 0 01-3.69 2.26c-6.15 2.67-12.5 4.8-18.84 7-2.1.71-4.48.87-6.3 1.87-3.55 1.94-7.68 1.79-11.19 3.77a24.05 24.05 0 01-5.67 2 70.56 70.56 0 00-11.52 4.46 53.2 53.2 0 01-10.44 3.14c-.45.1-1 0-1.34.29-2.69 1.91-5.84 2.63-8.88 3.66a11.94 11.94 0 01-3.46.9 2.38 2.38 0 00-1.33.27c-2 1.61-4.6 1.59-6.73 2.91-2.82 1.76-6.26 2.1-9.3 3.45-2.54 1.13-4.67 2.61-5.67 5.34s.52 4.62 3.24 3.83c3.17-.91 6.46-1.49 9.49-2.7s6.42-2 9.55-3.28c2.14-.85 4-2.18 6.05-3.21.49-.25.91-.76 1.41-.83 3.39-.46 6.45-2 9.66-3 5.71-1.76 11.5-3.46 16.78-6.39a42.37 42.37 0 0110.3-3.68c3.11-.8 6-2.24 9.11-3 1.79-.43 3.59-.83 5.35-1.36a48.64 48.64 0 009.57-3.58 33.3 33.3 0 017.49-2.85 32.06 32.06 0 006.66-2.63c5.41-2.82 11.2-4.73 16.85-6.94 3.07-1.2 6.43-1.6 9.6-2.56 3.5-1.06 7.08-1.74 10.46-3.38 2.66-1.29 5.87-1.41 8.78-2.23 3.53-1 7.17-1.63 10.42-3.53a14 14 0 015.59-1.38 6 6 0 002.64-.71 46.91 46.91 0 0113-5.26c3.9-1.07 7.75-2.27 11.62-3.39a11.69 11.69 0 013-.3c3.08-.06 5.45-2 8.17-3 .25-.09.53-.45.7-.4 2.69.83 4.62-1.3 7-1.77s4.77-1.37 7.19-1.85c5.07-1 10-2.69 14.94-4 5.66-1.5 11.13-3.77 17-4.43a7.08 7.08 0 001.59-.48 87.93 87.93 0 0110.63-2.93c4.72-1.06 9.52-1.8 14.16-3.25a46 46 0 019-2.34c3.28-.32 6.29-1.69 9.72-1.6a46 46 0 007.93-.77c3-.45 5.93-1.3 9-.28a7.91 7.91 0 002.49.12 54.86 54.86 0 0112.83 1.68 28.54 28.54 0 017.1 2.88c2.45 1.35 2.44 6 .13 7.53a36.44 36.44 0 00-4.65 3.89c-4.1 3.8-9.21 6-13.69 9.23-2.22 1.57-5 2.39-7.42 3.67-1.61.84-3.37 1.48-4.61 2.94a2 2 0 01-1.73.74 4 4 0 00-3.65 1.54 3.78 3.78 0 01-1.89 1.1 4.54 4.54 0 00-2.53 1.56 3.77 3.77 0 01-1.64 1c-2.88 1-5.41 2.72-8.23 3.82a84 84 0 01-8 3c-5.64 1.55-10.7 4.5-16.17 6.48-4.74 1.73-9.19 4.32-14 5.82-3.51 1.1-6.75 2.86-10.36 3.74-2.33.57-4.47 2.08-6.88 2.77-5.31 1.54-10.22 4.1-15.33 6.16a19 19 0 01-2.08.73c-4.59 1.27-9.21 2.45-13.78 3.8a74 74 0 00-12.13 5.27c-1 .47-.8 1.1-.17 1.73a58.46 58.46 0 015.52 6.75 34.43 34.43 0 003.58 3.45 6.44 6.44 0 011.85 2.39c1.09 3.34 2.91 6.34 4.3 9.54.93 2.13 3.92 4.6 6.6 4 3.74-.8 6.55 1.08 9.32 3a34.35 34.35 0 014.85 3.65c2.23 2.29 5.09 4.25 5.79 7.75.18.9.53 1.76.76 2.65a7.46 7.46 0 01-3.89 8.81 2.57 2.57 0 01-2.13.26c-1.06-.4-2.21-.33-3.24-.68-5.22-1.76-9.31.73-13.31 3.48-1.3.88-1.42 3-.37 4.48a4.73 4.73 0 001.53 1.58c2 1 4 2.11 6.31 2.52 6 1 11.91-.29 17.86-.2 1.82 0 3.6.42 5.49-.06a19.71 19.71 0 006.65-2.55 3 3 0 012.93 0 92.85 92.85 0 0111.1 4.18c2.46 1.23 4 3.49 6.11 5.13a35.79 35.79 0 008.84 5.3c3.36 1.34 6.72 2.76 10.27 3s6.18 2.69 9.41 3.62a5.27 5.27 0 011 .53c-.21.13-.33.36-.44.59zM525.05 371.78c1 .35 1.72-.38 2.55-.76 4-1.8 7.79-4.2 12.41-4.26a6.13 6.13 0 002.31-.85 2.11 2.11 0 001.27-2.45 25.21 25.21 0 01.55-8 19.5 19.5 0 015.67-10.82c.75-.72 1.76-1.5 1.32-2.53s-1.74-.82-2.73-.94a2.36 2.36 0 00-1.95.84c-1.5 1.37-3.08 2.65-4.52 4.06a9.37 9.37 0 00-2.39 3.37 55.25 55.25 0 01-5 10.05c-1.69 2.73-4.22 4.85-5.46 7.86-.1.23-.46.34-.6.57-.92 1.47-2.74 2.17-3.39 3.89l-.08.1zM239.1 383.21c-.55 2.59 1 4.89 3.05 6.54a57.86 57.86 0 015.42 5.43c3.49 3.65 7.33 7 10.12 11.29 1.25 1.93 3.25 2.93 4.76 4.54a118.36 118.36 0 008.5 8.71c2.77 2.4 4.64 5.72 7.71 7.86.21.15.27.49.45.69 2.82 3.05 5.4 6.32 8.18 9.39 2.95 3.25 6.17 6.26 9.11 9.53 1.23 1.39 2.13 3.89 4 3.71 1.7-.16 3.27-1.9 4.88-3 3.76-2.47 6.91-5.83 11.13-7.62a1.86 1.86 0 00.68-.46c3-3.14 7-4.57 10.59-6.77 1.92-1.19 4.09-2.13 6.08-3.23 6.36-3.53 12.55-7.35 18.81-11.05 4.74-2.8 9.45-5.65 14.25-8.35 4.25-2.4 8.66-4.5 12.88-6.95a107.09 107.09 0 0110.77-6 1 1 0 00.66-1.1c-.15-1.09.34-2.23-.25-3.27a9.66 9.66 0 01-.84-4.58 29.22 29.22 0 00-.74-5.2c-.43-1.88-.88-3.74-1.15-5.66-.37-2.63-.41-5.28-.78-7.91-.46-3.38-1.59-6.58-2.37-9.86-.55-2.35-.65-4.74-1.24-7.06-1.77-6.94-3.22-14-7.11-20.17a4 4 0 01-.6-1.54c-.41-3.59-1.78-7-2.27-10.53a38.31 38.31 0 00-2.19-8.28 25.67 25.67 0 01-1.65-4.69c-.86-5.38-3-10.42-4.18-15.71-1.36-6-4.54-11.39-6-17.4-1.08-4.46-2.76-8.76-4.15-13.14-.33-1.06-.21-2.26-.82-3.21-1.64-2.53-2.15-5.49-3.26-8.22-.72-1.79-.84-3.76-1.65-5.48a24.46 24.46 0 01-1.58-3.81c-.71-2.48-1.55-4.94-2.45-7.36-.44-1.2-.72-2.56-1.72-3.44-1.73-1.51-2.23-3.54-2.71-5.63a49.38 49.38 0 00-3.93-11.77c-1-1.89-2.24-3.73-2.69-5.74-.74-3.3-2.41-6.16-3.6-9.24a39.35 39.35 0 01-1.84-5.79c-.62-2.89-2.13-5.42-3-8.19-.64-2.07-2.17-3.58-3.11-5.46-2-4-3.82-8-5.79-11.93-2.26-4.52-4.5-9-6.82-13.54a32.09 32.09 0 01-2.86-7.74c-.74-3.3-2.82-6.18-3.92-9.34-1.79-5.11-4.13-10-5.93-15.06-1.25-3.54-3.39-6.74-4-10.54a7.32 7.32 0 00-.9-2 76 76 0 01-4.62-12.68 20.86 20.86 0 00-3.13-6.7c-1.31-1.72-2.55-3.36-2.76-5.58a3 3 0 00-.93-2c-1.12-1-1.6-2.46-2.36-3.71-1.21-2-1.66-4.3-2.75-6.33-1.86-3.5-4.93-6-7.62-8.72a9.58 9.58 0 00-4.86-2.88c-.7-.14-1.07 0-1.25.62a5.12 5.12 0 00-.32 1.61c.12 2.94-.67 5.8-.57 8.77a22.24 22.24 0 01-.24 6c-1.08 4.3.17 8.78-1.24 13a5.13 5.13 0 00.15 1.92 4.19 4.19 0 01.11 1.63c-1.24 3.6-.21 7.54-1.75 11.08.48 4.6-1.72 8.91-1.33 13.6a24.31 24.31 0 01-.87 7.91 22.39 22.39 0 00-.85 5.74 112.37 112.37 0 01-1.17 13.35c-.2 1.67-.76 3.37-.56 5.09a15.88 15.88 0 01-.78 8.14 5 5 0 00-.3 2.18 47.31 47.31 0 01-.6 10.42c-.95 5.46-.59 11-1 16.56-.35 5.12-.81 10.26-.87 15.4 0 2.71-.91 5.28-.82 8 .14 4-.5 8.06-.62 12.1-.08 2.83-1 5.64-1 8.46 0 4.55-.95 9-1.33 13.49-.5 5.85-1.09 11.71-2.11 17.53s-.75 11.71-1.3 17.57a77.47 77.47 0 00-.41 11.81 17 17 0 01-1 7.61 5.53 5.53 0 00-.18 1.37c-.74 5.75-1 11.55-1.22 17.33a61.14 61.14 0 00-.38 7.4c.34 4.78.66 9.56.72 14.36 0 2.29.31 4.67-.15 6.88-1.25 6-.41 12-.71 17.94-.14 2.91 0 5.89-.36 8.79a81.27 81.27 0 00-.59 10.27zm12.15-314.86a15.36 15.36 0 01-3.42 5.74c-.3.32-.31.89-.58 1.24-1 1.29.44 3.07-.78 4.21-1.07 1-2.32 1.8-2.91 3.25-.28.67-.86 1.23-1.08 1.92-.7 2.21-2.22 4-3.26 6a85.92 85.92 0 01-5.53 8.51 4.86 4.86 0 01-1 1.31c-2.18 1.62-3.11 4-3.91 6.43a4.86 4.86 0 01-.83 1.71c-2.3 2.74-3.87 6-5.81 8.91-2.48 3.79-4.08 8.23-7.71 11.25a3.47 3.47 0 00-.85 1.41c-.8 2.09-2.22 3.8-3.33 5.7a10.06 10.06 0 00-1 2c-1.15 3.59-2.2 7.22-6 9a1.53 1.53 0 00-.54.61c-2.16 3.51-4.09 7.16-6.91 10.21a10.94 10.94 0 00-1.63 3.19 24.63 24.63 0 01-5.74 8.64 7.31 7.31 0 00-1.27 1.45c-2.07 3.35-4 6.69-7 9.49-2.77 2.62-4.37 6.29-6.82 9.29-3.37 4.13-6.4 8.55-9.58 12.83-2.42 3.26-4.78 6.59-6.94 10s-4.53 6.89-7 10.2c-1.32 1.76-2.66 3.51-3.93 5.29-1.65 2.33-2.93 4.93-4.9 7.07a11.8 11.8 0 00-1 1.34c-1.56 2.26-2.55 4.93-4.88 6.64a2.5 2.5 0 00-.58.93c-.76 1.64-.26 2.48 1.56 2.46a6.82 6.82 0 012.74.14c2.78 1.15 5.49 2.49 8.54 2.89a5.47 5.47 0 011.73.82 40.29 40.29 0 008.16 4 16.82 16.82 0 013.65 1.21c2.79 1.66 5.82 2.77 8.73 4.15 6.16 2.9 12.57 5.24 18.74 8.09 3.58 1.65 7.27 3.06 10.86 4.65 4.66 2.06 9.57 3.6 14.26 5.69a75.49 75.49 0 0013.5 4.66 9.18 9.18 0 014.72 2.19 2.48 2.48 0 00.95.54c1.13.38 2-.06 1.89-1.22-.34-4 .36-7.9.55-11.85.18-3.58.43-7.17.74-10.74.34-4 1-8.07 1.14-12.11.2-4.58.69-9.14 1.07-13.68.25-3 0-6.32 2.11-9a1.06 1.06 0 00.13-.79c-.66-3.83-.28-7.72-.73-11.58a38.19 38.19 0 01.12-8.81 75.5 75.5 0 00.75-9.32 145.27 145.27 0 011.23-17.33c.46-4 .47-8.09.84-12.14.8-8.79 1.28-17.61 1.93-26.41a10 10 0 01.61-3.79c1.26-2.4.92-4.83.79-7.3-.07-1.47-.45-3.11 0-4.37a15.71 15.71 0 00.76-5.69 9.84 9.84 0 01.63-2.93 18.78 18.78 0 001.34-8.62 15.61 15.61 0 01.45-6 8.57 8.57 0 00.41-1.88c0-7.3 1.45-14.49 1.71-21.76 0-1.11-.18-2.36.27-3.27 1.22-2.26.2-4.41-.16-6.67zM133 252.58a26.46 26.46 0 001.69 4.76 149.34 149.34 0 0010.2 16.77 32.94 32.94 0 014.1 7.18c.5 1.29.8 2.65 1.35 3.91.9 2.1 2.64 3.5 4.38 4.88.87.69 2.11 1.34 2.13 2.44 0 2.39 1.59 4.09 2.35 6.14a24.75 24.75 0 003.72 6.71 20.72 20.72 0 013.07 6.08 12 12 0 002.2 4.38 14.06 14.06 0 012.61 4.22 4.06 4.06 0 001 1.61 10.43 10.43 0 013 5.51 12.61 12.61 0 001.86 4c2 3 3.93 6 5.83 9a55.33 55.33 0 015.93 13.29 7.36 7.36 0 001.26 2.46c2.75 3.48 4.36 7.71 7.29 11.07a4.62 4.62 0 01.8 1.44c1.11 3.22 3.65 5.77 4.22 9.22 3.09 4 3.82 9.21 7.13 13 .17.19.18.52.27.78 1.19 3.6 3.33 6.75 4.88 10.18s3.72 6.71 4.75 10.49c1.1 4 3.87 7.25 5.28 11.18.62 1.71.78 3.54 1.68 5.21 1.3 2.39 2.19 5 3.41 7.47 1.78 3.61 2.8 7.58 4.2 11.38.52 1.38.31 2.94 1.16 4.24 1.72 2.67 2.58 5.69 3.56 8.68a36.38 36.38 0 002.73 6.85c1.56 2.7 2.18 5.91 4.48 8.21a3.69 3.69 0 01.51 1.28c1.31 3.53 2.76 7 4.41 10.39.72 1.49.82 1.49 2.24.66 1.6-.95 2.63-2.59 4.3-3.45 3.47-1.77 6.23-4.55 9.33-6.83 4.64-3.42 9-7.27 13.44-10.92a109.27 109.27 0 0111.07-8.21c1-.65 1.19-1.31.43-2.22-3.42-4.09-6.12-8.69-9.41-12.85a158 158 0 00-15.17-17.13c-4.33-4.09-8.36-8.5-12.69-12.61-2.46-2.32-5.16-4.34-7.68-6.57a98.25 98.25 0 01-10.16-10.14 32.4 32.4 0 00-5-5.06c-.93-.71-2.35-1.47-2.26-2.66.23-3.2-2.81-6.25-.37-9.52.23-.31.07-.9.09-1.36.2-8 .21-16 .42-24 .16-6.24.09-12.49.86-18.73.61-5 1-10 1.47-15 .69-7.23 1.49-14.46 2.1-21.7.2-2.3.2-2.44-2.07-3.09a30.92 30.92 0 01-7.58-3.85c-4.07-2.52-8-5.28-12-7.87a39.45 39.45 0 00-4.62-2.49c-3.91-1.84-7.9-3.51-11.78-5.42s-7.6-3.72-11.46-5.45c-2.28-1-4.76-1.57-6.91-2.77-3.7-2.08-7.69-3.56-11.39-5.62-5.33-3-11.22-4.69-16.67-7.39a11.07 11.07 0 00-4.42-1.51 6.07 6.07 0 01-3.81-1.48 1.92 1.92 0 00-2.28-.42 18.83 18.83 0 01-5.46 1.25zm270.67 207.74c0-.29-.09-.75-.19-1.2-.67-3.12-.85-6.32-1.44-9.48-.81-4.4-1-8.93-1.75-13.38s-1.77-9-2.12-13.6c-.14-1.78-.65-2-2.41-1.47a40.58 40.58 0 00-4.68 1.65c-4.73 2.09-9.63 3.7-14.44 5.55-2.66 1-5.4 1.91-8 3.1-6 2.76-11.88 5.81-17.79 8.77-1.49.74-3.21 1.27-4.35 2.38-2.89 2.82-6.62 4.33-9.79 6.7a29.29 29.29 0 01-5.93 4c-1 .43-2.28.66-3 1.41-1.63 1.8-3.78 2.56-5.81 3.63-1.35.71-3 1.26-3.53 2.93a2.94 2.94 0 01-2.35 2c-1.63.43-1.78 1.45-.86 2.9 1.34 2.12 3.34 3.65 5 5.52 5.4 6.24 10.61 12.63 15.93 18.94 2.38 2.83 5.1 5.5 6.72 9a9.09 9.09 0 002 2.25 6.17 6.17 0 011.35 1.74 31.87 31.87 0 005.3 7.36 71.41 71.41 0 015.88 8.24c1.86 2.88 4.27 5.24 6.35 7.83 2.39 3 5.24 5.65 7.42 8.85.83 1.22 2.19 2 2.73 3.45.84 2.34 2.7 4.07 4 6.14 2.1 3.34 5 6.15 6.74 9.74a16.85 16.85 0 003.55 4.55 11.68 11.68 0 011.75 2.11c2.17 3.34 3.54 7.32 7.43 9.29 1.95 3.51 4.82 6.47 6.09 10.42.69 2.17 2 4.12 2.35 6.45a4.22 4.22 0 00.82 1.74c.86 1.18 2.44 1.61 3.39.68 1.49-1.46 3-3.06 2.85-5.4-.3-3.76-.79-7.5-1-11.26-.12-1.92-1.07-4-.29-5.7a11.59 11.59 0 00.66-5.39c-.06-2.94 0-5.9-.34-8.82s.13-5.52-.07-8.27c-.38-5.23-1.23-10.44-.9-15.71a3 3 0 00-.11-1.09c-1.48-4.41-1.82-9-2.4-13.58-1-7.84-2-15.7-2.39-23.62-.11-2.41-1-4.86-.63-7.13.67-3.86-1-7.44-.7-11.23a27.75 27.75 0 00-.63-6.58c-.31-2.07-.98-4.1-.41-6.41zM329 499.93a5.6 5.6 0 00-.7 1.16 28 28 0 01-4.46 8.53 7 7 0 00-.85 1.74c-1.23 3.55-2.63 7-3.82 10.61-1.25 3.73-2.14 7.59-3.63 11.23-1.32 3.21-2.35 6.52-3.63 9.75-.75 1.9-1.94 3.57-2.48 5.53a32.24 32.24 0 01-2.89 7.39c-1.28 2.3-1.82 4.82-2.66 7.25-1.78 5.19-3 10.61-6.69 15a3.2 3.2 0 00-.45 1q-1.61 4.26-3.19 8.53a5.71 5.71 0 00.67 5.53c.33.48.62.91 1.29.8 3.93-.69 7.89-.12 11.82-.2 2.76-.06 5.51-.43 8.27-.44 3.5 0 7-.26 10.49-.29s7.19.88 10.93.69c5.33-.27 10.7.36 16.06.26a5.29 5.29 0 011.64.16 15.57 15.57 0 007.61.52 6 6 0 013.75.4 4.42 4.42 0 003.25.27 10 10 0 013.85-.18c3.75.37 7.49.82 11.22 1.3 4.28.55 8.63.45 12.86 1.46a2.55 2.55 0 001.09-.1c1.29-.27 1.5-.72.93-1.91-1.38-2.91-3.64-5.28-5-8.23a4.7 4.7 0 00-2-2.23A4 4 0 01391 584a45.44 45.44 0 00-5.19-6.08c-3-2.94-5-6.78-8.17-9.67-.19-.18-.25-.49-.4-.72-2.24-3.36-4.28-6.86-7.13-9.77a6.06 6.06 0 01-1.18-1.51 36.64 36.64 0 00-4.15-6.51c-.87-1.19-1.83-2.3-2.64-3.55-2.46-3.77-5.16-7.38-7.54-11.2-2.06-3.29-4.71-6.11-6.8-9.37-1.33-2.08-2.5-4.27-3.91-6.28-2.27-3.24-4.7-6.36-7.07-9.52-1.78-2.36-3.71-4.64-4.82-7.39a3.49 3.49 0 00-3-2.5zm131.8 67.22h-.18a4.17 4.17 0 000 1.37c1.12 3 1.37 6.1 1.86 9.2.53 3.36.64 3.47 3.84 2.06 3.6-1.6 7.07-3.45 11.24-2.9a1.75 1.75 0 001.79-1.46 8.78 8.78 0 00.26-3 34.25 34.25 0 01.37-7.14c.4-2.73 1.11-5.4 1.47-8.13.52-3.85.87-7.7 1.19-11.56a58.86 58.86 0 00-1-16.5c-.4-2-.22-3.05 1.42-4.52 2.41-2.15 4.66-4.51 7.56-6a31.38 31.38 0 007.07-5.25c3.53-3.29 7.77-5.25 12.13-7a10.8 10.8 0 003.16-1.68 14.48 14.48 0 015.34-2.83 14.72 14.72 0 005.4-2.68 36.6 36.6 0 015.81-4.19 11.4 11.4 0 002.84-2.2 3.42 3.42 0 001-3.31 8.36 8.36 0 00-2.42-4.29 20.46 20.46 0 01-3.58-4.12c-1.1-1.43-2.93-2.26-3.38-4.19-3.57-2.39-6.06-6.22-10.31-7.71a2.72 2.72 0 01-1.32-1 5.53 5.53 0 00-4.35-2.08 6.7 6.7 0 01-3.57-1.25c-1.4-1-3-1.42-4.43.15a7.25 7.25 0 01-2.9 1.57c-4.75 1.78-8.41 5.18-12.12 8.44-2.41 2.12-4.59 4.48-7.49 6a3.52 3.52 0 00-1.35.94c-2.12 3.21-5.81 4.58-8.43 7.27-2.31 2.37-5.4 4-7.78 6.46-3.33 3.41-6.69 6.79-10 10.23-2.18 2.28-2.91 4.81-3.71 7.49a4.39 4.39 0 00.28 4 2.91 2.91 0 01.41 2.41c-.6 1.82.1 3.52.52 5.16a7 7 0 003.86 5.09 3.11 3.11 0 012 2.75c.33 4 2.42 7.47 3 11.41s1.69 7.73 2 11.68a23.62 23.62 0 001.05 4.84c.7 2.13 1.01 4.32 1.46 6.47zm-175.87 24.18a3.9 3.9 0 002-2c.9-1.6 1.53-3.32 2.27-5 1.49-3.32 3.78-6.29 4-10.12a1.18 1.18 0 01.21-.51c2.47-3.72 2.36-8.47 4.83-12.2a1.38 1.38 0 00.12-.54 38.43 38.43 0 013.4-11.47c1.33-2.94 3-5.71 3.12-9.06 0-.34.33-.66.43-1 1.08-3.65 3.4-6.73 4.75-10.28 1.09-2.83 1.61-5.82 2.61-8.68.58-1.69 1.54-3.29 1.8-5.13.31-2.18 1.07-4.31 1.22-6.49a40.69 40.69 0 011.13-6.31c1-4.3 1.53-8.7 2.33-13a3.94 3.94 0 00-1.05-3.52c-2.8-3.31-5.37-6.83-8.33-10-1.5-1.59-3.06-3.19-4.71-4.65a2 2 0 00-2.91-.17 121.23 121.23 0 00-13.76 11.05c-2.22 1.95-4.71 3.44-6.88 5.37-1.75 1.56-4.13 2.18-5.74 3.76a106 106 0 01-8.17 7.27c-2 1.57-3.4 3.64-5.31 5.16-1.41 1.13-1.84 2.95-3.41 3.88-.62.37-.22 1.2 0 1.8.51 1.48 1 3 1.61 4.41 1.28 3.23 2.47 6.51 3.94 9.65 1.72 3.69 2.7 7.63 4.25 11.38 1.16 2.81 2.66 5.66 2.61 8.89a3.57 3.57 0 00.55 1.54 68.93 68.93 0 013.76 12.13c.81 3.58 1.45 7.21 2.2 10.81 1.11 5.24 3.2 10.18 4.81 15.27.81 2.53 1.39 5.12 2.32 7.76zM572.87 392.2c2.76 1 5.33.48 8-.86s4.79-3.71 7.3-5.4a4.08 4.08 0 001.46-2.91 81.59 81.59 0 013-12 5.07 5.07 0 00.24-2.18c-.4-3.33-.19-6.65-1.33-10s-3.53-5.07-5.78-6.7-5.68-1.69-8.67-.09c-2 1.06-3.84 2.44-6.19 2.74a5.92 5.92 0 00-2.45 1.23c-5.05 3.39-9.7 7.34-15 10.4a75.41 75.41 0 00-8.55 5.51c-2.09 1.62-3.93 3.57-6.35 4.77-1.64.82-3.23 1.76-4.86 2.61-2.68 1.4-5.16 3.14-7.74 4.7a20 20 0 01-11.84 2.69 80 80 0 00-15.7.69 107.73 107.73 0 01-19.55 1.56c-5.56-.21-11.27.31-16.35-2.78-.15-.1-.37-.07-.53-.14-2-.88-4.25-1.5-6.05-2.73-3.45-2.35-7.51-3.5-10.89-5.95a4.15 4.15 0 00-1.83-.58c-1.53-.21-3.44 1.5-2.16 3.28a14 14 0 002.12 2.88 16.22 16.22 0 012.17 2.49 1.84 1.84 0 01.15 2.5 8.73 8.73 0 01-2.51 2.9 6.67 6.67 0 00-2 1.89c-1.15 1.51-1.09 2.41 0 4a4.37 4.37 0 004.82 1.88c1.48-.28 2.53-.18 3.36 1.45a5.36 5.36 0 003.48 3c2.08.43 4-.45 5.9-1.18 1.35-.53 2.78-1 3.16-2.8a2.16 2.16 0 011.49-1.54 21.62 21.62 0 015.07-1.25c3.93-.33 7.79 1.4 11.74.32a3.26 3.26 0 011.87.42 11 11 0 006.13.98 3.42 3.42 0 011.86.41 18.67 18.67 0 009.09 1.82 6.2 6.2 0 012.73.33 19.2 19.2 0 007 1.11 24 24 0 003.82.35c2.61-.28 5.15-1.24 7.84-.84a2.26 2.26 0 001.06-.29c2.29-1 4.69-1.65 6.92-2.78 2.79-1.41 5.59-2.8 8.47-4a57 57 0 015.82-2.54c6.49-1.85 12.59-4.65 18.74-7.31a60.46 60.46 0 0110.89-3.76c2.54-.57 5.06-1.23 7.59-1.84-3.83 3.82-6.83 7.92-6.96 13.54zm-63.11 57.74a7.28 7.28 0 003.31 1.26 21.24 21.24 0 018.42 3.18c3.63 2.4 7.38 4.78 10.5 7.92 1.36 1.36 3.22 2.15 4.1 4.05.51 1.11 1.38.47 1.62-.19 1.21-3.28 3.32-6.1 4.25-9.56 1.3-4.81 2.53-9.62 3.49-14.49.52-2.61 1.57-5.13 1.45-7.86a19.44 19.44 0 011.2-6.75c1-3.05 3.21-5.36 4.89-8 2.13-3.35 5.25-5.88 7.84-8.86 2.36-2.7 5.27-4.92 6.8-8.29a2 2 0 01.73-.82c1.53-.91 1-1.92.2-3-1-1.28-2.39-2.28-3.1-3.85-.9-2-2.66-2.26-4.61-2.09a9.77 9.77 0 00-1.86.48 52.94 52.94 0 00-7.62 3.2c-5.62 2.56-11.07 5.43-16.52 8.31a17.17 17.17 0 01-2.78 1.23c-3.24 1.05-6.48 2.11-9.77 3-1.21.32-1.81.84-1.7 2.05a9.75 9.75 0 01-1.55 5.53c-1.17 2.19-2.57 4.26-3.88 6.38-.74 1.2-1.49 2.31-3.19 2.22a2.85 2.85 0 00-2 1 38.1 38.1 0 01-5.67 3.87c-3.63 2.39-7.12 4.94-10.56 7.58-1.32 1-1.35 1.46-.06 2.42 1 .78 2.31 1.15 3.26 2.08a2.91 2.91 0 002.77.58c1.4-.2 2.4-1.31 3.89-1.24a60.31 60.31 0 0112 1.53c2 .5 3.21 1.83 4.4 3.51-9.43.98-8.01.68-10.25 3.62zm-87 10.57c4.58-3.8 9.61-6.85 14.27-10.41 1.26-1 2.21-2.27 3.56-3.06 4.35-2.56 7.47-6.48 11.06-9.87 1-1 1.26-2.42 2.33-3.4 4.14-3.77 8.69-7.15 11.87-11.88a4.11 4.11 0 01.58-.6c3.7-3.29 7.29-6.69 9.79-11a7.54 7.54 0 012.63-2.78 1.38 1.38 0 00.8-1.69c-3.57-.18-6.94-1.48-10.37-2.45a3.13 3.13 0 00-3.5.79 38.4 38.4 0 00-3.25 3.39 5.37 5.37 0 01-4.35 2c-1.77 0-3.49.33-5.22.47a10.93 10.93 0 01-7.33-1.84c-2.65-1.8-5.58-2.79-8.84-1.7a2.61 2.61 0 01-1.88-.12c-3.28-1.25-6.51-1.69-9.63.54a8 8 0 01-2.06.77 6.69 6.69 0 00-4.23 5.49c-.07 1.19 0 2.39 0 3.59 0 5.51 1.37 10.89 1.51 16.42.09 3.75.33 7.53.7 11.28.49 5.25-.97 10.67 1.53 16.06zm61.26.58c-1.19-3-3.71-4.58-5.93-6.46-.69-.59-1.19-.82-2.05.07-2.3 2.38-4.79 4.57-7.21 6.83-2.69 2.5-5.39 5-8.18 7.38-2 1.69-3.85 3.43-6.36 4.26-.84.28-1.68.65-1.89 1.46-.47 1.81-1.87 2.62-3.25 3.58-1.88 1.3-3.31 3.23-5.51 4.13-.54.22-.59.9-.9 1.34-2.29 3.21-4.1 6.85-7 9.52-3.41 3.13-5.66 7-8.21 10.73a13.7 13.7 0 00-2.19 10.21 72.35 72.35 0 01.8 10.17c.07 4.6 0 9.22.19 13.82.09 2.24-.64 4.42-.53 6.55.19 4 0 7.89-.14 11.84a12.2 12.2 0 00.23 3c.92 3.94.33 7.89.1 11.83 0 .72-.37 1.49-.11 2.18.55 1.44.3 2.9.38 4.36.15 3.15-.48 6.24-.4 9.38.05 2.13.09 4.28-1.16 6.39a8.13 8.13 0 00-1.1 5.31c.2 1.25.94 1.49 1.68 1a12.08 12.08 0 014.68-1.57 2.06 2.06 0 001.92-2.26c0-2.59.52-5.13.69-7.7a43.65 43.65 0 01.94-8.21c1.3-4.88 2.14-9.86 3.57-14.69a24.9 24.9 0 00.55-3.53c.44-3.17.06-6.46 1.37-9.53a10.15 10.15 0 00.8-5.15 3.74 3.74 0 01.29-1.88 30.14 30.14 0 002.06-12.45 6.86 6.86 0 00-1.24-3.86c-2.36-3.44-4-7.1-3.6-11.55.38-4.27.69-8.45 3.42-12 1.28-1.67 2.8-3.18 3.43-5.28.1-.32.45-.58.7-.85 2.6-2.7 4.35-6.08 7.08-8.71 1.9-1.84 3.3-4.12 5.23-6s4-3.45 5.84-5.43c1.14-1.25 1.75-3.26 3.5-3.74 2.27-.61 3.34-2.4 4.82-3.87a31.54 31.54 0 014.59-3.91c2.92-1.93 5.87-3.75 8.08-6.71zM455.61 301.5c-2.4 1.62-2.34 3.51-1.43 5.88s2.17 4.48 3.08 6.81c1.17 3 1.78 6.17 2.67 9.26 1.54 5.37 3 10.77 4.5 16.14 1.23 4.48 4.05 5.58 7.7 6.18 1.45.24 2.86.53 4.29.87 3 .7 5.71 2.07 8.6 2.93a89.62 89.62 0 0012.35 2.66 53.94 53.94 0 0110.82 3A56.23 56.23 0 00518 358c4.36.77 7.28-1.32 9.56-4.19s4.71-5.19 6.68-8.11a5.09 5.09 0 012.49-1.67c2.73-1.08 5.31-2.57 8.25-3.11.43-.08 1-.18.89-.82s-.59-.63-1.06-.67a32.55 32.55 0 00-7.45.2 6.35 6.35 0 01-2.94-.13 10.42 10.42 0 00-6.29-.17c-2.77.9-5.6 1-8.39 1.48-3.07.56-6.07-.37-9.1-.3a63.57 63.57 0 01-11-.71c-5.29-.8-10.52-1.86-15.77-2.82-1.86-.34-3.09-1.09-3.56-2.88-.61-2.3-2.37-3.69-3.95-5.22-1-.95-2.19-1.7-3.14-2.69s-2.54-2-2.69-3.71a4.51 4.51 0 00-1.64-3.09c-1.95-1.7-2.85-4.08-3.9-6.27-2.06-4.31-3.73-8.81-5.54-13.23a4.1 4.1 0 01-.39-2.14 26.83 26.83 0 015.88-13.75 41.79 41.79 0 004.44-7.6c.51-1 0-1.55-1.15-1.43a2.54 2.54 0 00-1.93 1.41c-1.28 2.1-3.37 3.4-5 5.11a3 3 0 01-3.58.62c-1.31-.61-1.48-1.72-.91-3.05a3.12 3.12 0 00-.26-2.42c-.61-1.5-1.75-1.82-3-.88a7.4 7.4 0 00-3.05 3.88 14.52 14.52 0 00-1.61-1.39c-2-1.27-3-.91-4.28 1.12s.28 3.56.41 5.32a2 2 0 001.9 1.74 2.32 2.32 0 002.4-1c.42-.58.52-1.38 1.23-1.76 1.83 3.41 1.63 3.76 5.6 2.5-.06 3.39-1.66 5.06-5.35 5.05-1.91 0-2.86 1.32-3.84 2.34s.75 1.62 1.17 2.46c.17.33.23.71.43 1a5.72 5.72 0 003.55 2.87 6.37 6.37 0 013.5 1.61zm-31.86 189.7c.45-.09.58-.08.62-.13A127.4 127.4 0 01437.74 478c2.72-2.35 4.77-5.41 7.79-7.4a20 20 0 005.15-5.63 9.2 9.2 0 012.6-2.83c4.56-2.54 7.69-6.76 11.77-9.82 2.07-1.55 3.81-3.46 5.88-5a6.07 6.07 0 002.41-2.88 9.73 9.73 0 015.66-5.7 69.35 69.35 0 007.57-3.9c7.52-4.47 14.16-10.25 21.68-14.71a6.12 6.12 0 002.95-4.4 21.44 21.44 0 00.3-3.31c.06-1.19.45-2.64-.08-3.51-.82-1.36-2.37-.07-3.56 0a105.7 105.7 0 01-11.54-.64 4.06 4.06 0 00-4.25 2.35c-.13.24-.26.48-.4.72-2.41 4.09-4.38 8.43-8.14 11.65-2.15 1.83-3.68 4.36-5.63 6.45-2.9 3.08-5.55 6.39-8.6 9.33-2 2-3.85 4.21-5.91 6.08-4.54 4.12-9.57 7.7-14.33 11.59-3.82 3.12-7.23 6.72-11.19 9.7-2.5 1.89-5.17 3.55-7.79 5.19-1.92 1.2-3.87 2.38-5.69 3.76a3.46 3.46 0 00-1.39 2.59 57.14 57.14 0 00.75 13.52zM429 387.32c-.21-.82-.6-1.37-1.55-.86-2.78 1.48-5.87 2.2-8.71 3.51-6.68 3.06-13.37 6.09-19.84 9.62-6.86 3.74-13.88 7.18-20.8 10.82-3.81 2-7.39 4.43-11.26 6.37-3 1.52-5.79 3.58-8.84 5.06a53 53 0 00-8.89 5.47 82.57 82.57 0 01-8.24 5.44c-1.91 1.11-3.78 2.32-5.76 3.29-3.64 1.78-6.59 4.59-10 6.69-1.66 1-3.45 1.75-5.07 2.79-4.1 2.63-7.81 5.83-12.05 8.25a8.08 8.08 0 00-1.87 1.64c-.37.41-.69.92-1.23 1.06-3.59.94-6.17 3.59-9.07 5.59-5.91 4.06-11.68 8.33-17.41 12.67-3.35 2.53-6.56 5.25-9.86 7.84-4.11 3.22-8.08 6.66-12 10.14A102.17 102.17 0 00242 507.83c-1.2 1.62-1.89 3.57-3.17 5.16a.64.64 0 00.22 1 .83.83 0 00.75-.08c1.86-1.53 3.95-2.81 5.45-4.7 2.12-2.66 4.09-5.39 7.08-7.23a6 6 0 002.18-2.46 6.21 6.21 0 013.71-3.48 4.44 4.44 0 001.75-1.32 35.5 35.5 0 017.23-6.33c3.27-2 6-4.83 9.48-6.57 2.76-1.38 4.84-3.89 7.47-5.6 3.38-2.21 6.57-4.71 9.8-7.14 5-3.76 10.54-6.69 15.37-10.67a5 5 0 011.62-1c3.27-1 5.88-3.07 8.54-5s5.41-4.1 8.58-5.46a25 25 0 003.4-1.85c3.44-2.13 6.58-4.74 10.17-6.64 1.79-.95 3.82-1.51 5.36-2.86a26.1 26.1 0 015.13-3.19c3.82-2 7.65-4 11.34-6.27 1.27-.77 2.18-2 3.6-2.51 3.09-1.05 5.19-3.72 8.28-4.88 2.1-.79 3.87-2.41 5.85-3.55 3.91-2.23 7.84-4.43 11.81-6.56 4.36-2.35 8.64-4.91 13.19-6.84a138.85 138.85 0 0014.71-6.92 4.9 4.9 0 011.58-.52c3.65-.62 4.71-3.8 6.37-6.39a1.53 1.53 0 00.15-.65zm135.45-82.14c-2.46 1.53-2.56 1.52-4.24-.68a11.47 11.47 0 00-.8-1.13 2.14 2.14 0 00-3.2-.07c-1.92 1.77-2.41 6.1-.89 8.22a12.54 12.54 0 004.91 4.37 4.81 4.81 0 013 4.82 29 29 0 00.48 6.89 24.59 24.59 0 01.07 11.19c-.21 1-.31 2-.49 3-.59 3.17-2.43 5.54-5.15 7.75-.58-1.63-.2-2.84-.33-4-.09-.82-.24-1.44-1.15-1.64s-1.14.4-1.46 1a69.67 69.67 0 01-3.57 6.23c-2.14 3-2.16 6.54-2.53 10 0 .36 0 .79.51.81a.81.81 0 00.66-.35c.85-2.17 2.63-3.52 4.32-4.93 3.95-3.3 7.62-7 12.72-8.6a5.64 5.64 0 001.43-.84 17.07 17.07 0 017.86-3.15 10 10 0 001.91-.3c1.42-.47 1.69-1.31.64-2.38a44.77 44.77 0 01-5.89-8.21c-.49-.8-1-1.65-.32-2.57s1.58-.57 2.51-.52c4.58.2 9.13 1 13.76.42a3.38 3.38 0 002.83-1.79c1.39-2.43 1.94-5.17 3-7.72a5 5 0 00.13-1.65c0-.48-.09-.93-.63-1.09a1.25 1.25 0 00-1.51.31c-.22.29-.33.66-.52 1a5.51 5.51 0 01-2.88 2.06 1.68 1.68 0 01-2.17-.76c-.48-.87.51-1 .94-1.39a8.66 8.66 0 001.21-1.13c.7-.95 1.79-2 1.43-3.15-.56-1.83-1.59-3.51-2.23-5.34-.2-.57-.87-.71-1.29 0a15.81 15.81 0 00-.73 1.49 10.89 10.89 0 01-10.93 6.16c-5.52-.58-9.07-3.73-10.41-9.13a8.63 8.63 0 00-1.03-3.2zm-310 234.87c1 0 2 .09 3 0 1.66-.18 1.93-.7 1.7-2.42-.15-1.15-1.08-2-1.25-3-.81-5-3.35-9.33-5.11-14a6.75 6.75 0 00-1.12-1.9c-1.61-1.94-3.32-1.84-4.67.29a8.79 8.79 0 01-1.9 2.32 35.66 35.66 0 00-7.77 8.84c-2.46 4-.17 8.52 4.43 9.32 4.16.71 8.41.19 12.61.55zm186.54 53.89a14.09 14.09 0 003.9-.64c2.67-.93 5.18-2.25 8-2.86 2.23-.49 2.93-1.58 2.68-3.79q-.44-3.84-1-7.65c-.65-4.17-2.06-8.18-2.79-12.35-.37-2.12-.26-4.42-1.69-6.35-1.55 1.68-2 4-3.39 5.68a21.69 21.69 0 00-3.85 8.15c-1.75 6.23-1.94 12.65-2.06 19.08a3.07 3.07 0 00.12.73zm123.54-294.18a4.93 4.93 0 003.23-.7c5.39-2.45 10.59-.77 15.62.87 3.26 1.06 6 1.39 8.71-.9a3.7 3.7 0 011.17-.73c.93-.3 2.3.33 2.8-.71s-.63-2-.61-3.15a2.83 2.83 0 00-.09-.82c-1.08-4.15-4-5.65-7.93-3.95a4.83 4.83 0 01-3.5.35c-1.76-.58-3.62-.68-5.35-1.17a13.08 13.08 0 00-5.47-.32c-2.45.36-5.1 1.12-6.5 3.22-1.53 2.3-2.81 4.97-2.08 8.01zm-71.27 154.68c.93 0 3.42-1.28 3.53-1.9.18-1-.54-1.71-1.07-2.44a6 6 0 00-1-1 46.59 46.59 0 00-10-5.71 1.78 1.78 0 00-2.61.69c-.64 1.17 0 2 1 2.46a23.69 23.69 0 018.08 7 2.08 2.08 0 002.07.9zm84.45-150.61a5.41 5.41 0 00-2.66-.93c-2.87-.47-5.9 2.65-5.4 5.43.33 1.78 1.14 2.06 2.69 1 2.15-1.47 3.66-3.53 5.37-5.5zm15.58 3c0 .81-.28 1.81.72 2.17.79.29 1.29-.44 1.85-.92 1.32-1.14 2.78-2.14 4-3.36.67-.66 2.17-1.12 1.7-2.24-.58-1.4-2.12-.7-3.21-.63-2.35.15-4.99 2.79-5.06 4.96zm-150.24-24.96a7.71 7.71 0 00-.07-1 2.61 2.61 0 00-2.66-2.28 2.39 2.39 0 00-2 2.81 9.32 9.32 0 00.31 1.89c.46 1.6 1.34 2.41 2.4 2.16a2.63 2.63 0 002-2.66 8.71 8.71 0 00.02-.92zm134.89 31.64c.18-.05.36-.09.53-.15a6.66 6.66 0 004.09-5.74 1.13 1.13 0 00-.31-.73.68.68 0 00-1 .19c-1 1.23-2.45 1.94-3.57 3a4.64 4.64 0 00-1.06 1.25 1.46 1.46 0 001.32 2.18zm19.54-2c3.14.92 5.12 0 5.77-2.59a1.44 1.44 0 00-.37-1.52c-.44-.36-.87 0-1.2.28-1.3 1.24-3.04 2.02-4.2 3.82z"/><path d="M127.83 610.37a2 2 0 001.49 1.1c3.08.58 5.82 2.16 8.84 2.89s5.29 2.54 8 3.68a29.59 29.59 0 015.69 3.23 24.91 24.91 0 014.29 4.59 44.14 44.14 0 013.79 6.43c2.13 3.76 1.35 7.21-1.58 10-2.24 2.17-4.17 4.64-6.77 6.51-1.9 1.37-3.42 3.27-5.52 4.52a16.32 16.32 0 01-8.29 2.34 82.58 82.58 0 01-10.19-.48 8.85 8.85 0 00-3.58.15 1.1 1.1 0 00.87 1.47c3.1.87 4 3.94 5.9 6s.33 5.68-2.23 6.28c-3 .73-5.95 1.9-9 2.68a36.18 36.18 0 01-15.22.26c-1.31-.22-1.77.25-1.49 1.46a12.83 12.83 0 01-5.66 13.32c-2.65 1.76-5.54 1.73-8.4 2.22-.27 0-.66.08-.81-.06-1.71-1.59-4-1.22-6-1.82-3.24-1-6.13.22-9 1.13-1.32.41-2.54 1.09-4 .9a10.41 10.41 0 00-4.08.61c-3.07.83-6.24.64-9.33 1.2a1.69 1.69 0 01-2-1.07 1.84 1.84 0 01.76-2.18 5.56 5.56 0 012.49-1.17c1.26-.25 2.54-.43 3.82-.66a14.22 14.22 0 006.38-2.31 20.94 20.94 0 0113.19-4.25 15.19 15.19 0 0010.26-3.42 8.7 8.7 0 011.61-1 4 4 0 002.23-2.65c.67-2.59 2.3-4.09 4.76-5.31a27.69 27.69 0 016.27-1.89 2 2 0 011.1 0c2.22.9 4.35 0 6.51-.3a8 8 0 013.27-.17 2 2 0 002.37-.94c.43-.77-.28-2.18-1.32-2.75a27.18 27.18 0 00-2.73-1.3c-2.91-1.22-4.46-4-7.08-5.64-1.18-.72-1.09-2.46-1-3.84.12-2.71 2.18-4.34 4.87-4.5a23 23 0 019.51 1.12c3.5 1.31 7 1 10.56.93a26.61 26.61 0 009.06-2.22 33.63 33.63 0 005.54-3.11 7.07 7.07 0 003.21-8.33 3.8 3.8 0 00-.84-1.4 31.05 31.05 0 00-7.22-6c-3.48-2.06-6.95-4.13-10.54-6a20.53 20.53 0 00-6.81-1.94 9 9 0 01-4.59-1.71 19.15 19.15 0 00-2.73-1.32c-2-1-2.51-2.51-1.67-4.57.42-1 .84-2 1.34-3 .29-.56.63-1.37 1.12-1.52 2.32-.71 3.72-2.64 5.52-4a15 15 0 016.65-3.24 3.44 3.44 0 001.59-.44c3.06-2.58 6.91-2.23 10.49-2.86 1.71-.3 3.52-.14 5-1.21a.76.76 0 01.52-.16c2.31.63 4.67-.49 7 .17 2.08.6 4.21.27 6.29.58 3.32.51 6.46 1.74 10 1.42a10 10 0 015.22 1.57 14.17 14.17 0 006.87 2c-1.65-1.94-2-4.16-3.6-5.83s-1.23-6.56.35-8.89a9.59 9.59 0 017.45-4.15c2.93-.32 5.83-.89 8.76-1.09 3.75-.26 7.58-.51 10.87 2 .15.11.32.26.48.26 4.39.16 7.61 3.67 11.91 4.12a15 15 0 013 1 48 48 0 00-1.63-7.1c-.89-3.73-.42-7.12 2.6-9.81a32 32 0 012.83-2.21c2.32-1.64 4.72-2.27 7.53-1 2.08.92 4.38 1.15 6.5 2.2 2.91 1.42 4.7 3.76 6.56 6.15.34.43.54 1 .9 1.39 1.78 2 3.63 3.86 4.58 6.48a8.56 8.56 0 002.18 2.81 19.68 19.68 0 013.17 3.77 10 10 0 003.41 3.54 11.5 11.5 0 014.46 5.49 17.52 17.52 0 005.07 6.75 57.73 57.73 0 006.18 4.92 4 4 0 01.89.62.9.9 0 01.27 1 .71.71 0 01-.93.35c-1.63-.66-3.36-.94-5-1.54-4.67-1.68-8.6-4.63-12.52-7.46a35.18 35.18 0 01-5.08-4.53 52.79 52.79 0 00-4.59-4.83 26 26 0 01-6.65-8.65 30.66 30.66 0 00-7.7-9.95c-1.15-1-2.67-1.65-3.78-.91a4.74 4.74 0 00-2.12 4 7.78 7.78 0 001.06 4.23 12.68 12.68 0 012 5.09 11.05 11.05 0 001.45 3.86 5.16 5.16 0 01.6 4.95c-.74 2.23-2 3-4 2-2.89-1.4-5.77-2.8-8.62-4.26a5.84 5.84 0 00-1.84-.56c-4-.63-7.51-2.4-11.2-3.8a4.25 4.25 0 00-1.85-.4 5.49 5.49 0 01-3.13-.95 10.84 10.84 0 00-5.52-1.26 18.34 18.34 0 00-8.36 1.29c-2 .94-2.3 1.59-1 3.22 2.59 3.19 5.14 6.43 8 9.42a49.16 49.16 0 006 4.9 5 5 0 012 4.85 2.4 2.4 0 01-2.29 2.35 9 9 0 01-4.38-.35c-1.94-.79-4.12-.89-5.91-2.15a9.47 9.47 0 00-2.59-.91c-3.52-1.08-7.15-1.79-10.47-3.46a1.76 1.76 0 00-.78-.26c-3.53.39-6.63-1.46-10-1.88-4-.5-8-1.33-12-1.51a40.66 40.66 0 00-6.86.29c-2.73.35-5.44.76-8.16 1.15-2 .29-3.65 1.48-5.58 1.47-3.14-.01-5.23 1.84-7.49 3.76zM354 680.14c-2.94.22-6.5.38-9.79 2-2 1-2.69 2.75-1.51 4.77 1 1.68 1.15 3.65 2.3 5.31 1 1.47 0 2.81-1.8 3a8 8 0 01-5.27-1.12 18.78 18.78 0 00-6.15-2.35c-2.5-.56-4.75-1.92-7.27-2.55-5.35-1.35-10.4-3.68-15.84-4.83-3.94-.84-7.77-2.19-11.64-3.36a28.1 28.1 0 00-12.58-1.19 4.79 4.79 0 00-2.84 1c-2.54 2.48-6 3.61-8.65 5.88-2.31 2-5.51 2.15-7.65 4.19-2.4 2.28-5.6 3.13-8.23 5a8.79 8.79 0 01-2.52 1.07c-3.67 1.13-7.35 2.25-11 3.4-2.13.67-4.45 1-6.67 1.54a28.75 28.75 0 00-6.74 2.26 11.2 11.2 0 01-5.53 1.45c-3.53-.22-6.72 1-10 1.65q-9.07 1.78-18.07 3.91a129.44 129.44 0 01-17.19 2.49c-1.15.11-2.09 0-2.35-1.29a2 2 0 011.39-2.37 9.54 9.54 0 012.44-.5 65.2 65.2 0 0016.37-3.67 44.52 44.52 0 008.55-3.75 69.1 69.1 0 019.33-5c3.19-1.31 6.2-3.29 9.74-3.72a6.55 6.55 0 002.61-.86c3.59-2.17 7.61-3.13 11.54-4.41 2.19-.71 4.51-1.22 6.11-3.42 1.18-1.62 3.56-1.81 5.45-2.46 2.36-.83 4.58-2 6.87-2.92a39.12 39.12 0 014.34-1.78c1.95-.56 3.45-2 5.18-3 3.38-1.91 7-3.28 10.4-5.1a3.36 3.36 0 012.67-.16c3.92 1.08 8 1.16 12 1.71a91 91 0 019.15 1.88 9.74 9.74 0 001.88.41c3.83.11 7.36 1.67 11 2.3 5.26.9 9.72 3.93 14.88 4.94a16.1 16.1 0 013.84 1.55c1.5.72 1.83.6 2.14-.91a23.24 23.24 0 011.49-3.85 6.07 6.07 0 013.69-3.53 45.46 45.46 0 0111.57-2.75c4.54-.51 9 .81 13.49.74a2 2 0 01.8.19c6.24 2.6 12.8 4.48 18.34 8.56a17.55 17.55 0 003.81 2.22c4.34 1.74 7.86 4.78 11.78 7.19a6.56 6.56 0 001.63 1c4.74 1.15 8.18 4.52 12.11 7a27.24 27.24 0 004.06 2.34 34.84 34.84 0 016.89 4.49 59.61 59.61 0 005.77 4.12 39.1 39.1 0 013.91 2.61c1.55 1.14 1.76 1.85 1 3-.83 1.32-1.74 1.57-3.29.79q-4.41-2.22-8.77-4.5c-5-2.59-10-5-15-7.46-2.36-1.14-4.92-1.75-7.19-3.16s-4.52-2.89-7.23-3.36c-2.3-2.77-6.45-2.77-8.61-5.76a1.34 1.34 0 00-.93-.56c-2.27 0-3.76-1.88-5.82-2.38-1.69-.41-2.46-2.26-4.08-2.77-4.92-1.56-9.41-4.45-14.8-4.66-1.61-.07-3.26-.32-5.51-.5zM107.64 557.81a49.09 49.09 0 0121.58 5c1.49.72 3 1.37 4.57 2a3 3 0 003.69-1.06c.73-.93 1.15-2.21 2.47-2.46a10.49 10.49 0 015.48.33 12.49 12.49 0 015 2.85 10 10 0 003.22 2.1 24.21 24.21 0 015.45 3.69c.43.34.81.87 1.3 1 2.45.67 3.32 3.1 5.12 4.49 1 .77.13 2.55-1.43 2.83a10.51 10.51 0 01-5.48-.18 32.76 32.76 0 00-6.72-1.54c-2.71-.38-5.24-1.64-8-1.88-1.26-.11-2.17-.47-2.58 1.37A10.13 10.13 0 01139 580a4 4 0 01-3 1.68 13 13 0 00-4.57 1 2.11 2.11 0 01-1.32.27c-2.83-1.06-6-.62-8.73-2.37a13.52 13.52 0 00-6.6-1.83 11.37 11.37 0 01-4.46-1.2c-3.43-1.74-6.9-3.43-9.83-6-2.58-2.28-4.26-4.83-3.5-8.45a4.3 4.3 0 011.1-2.1c2.61-2.92 6.01-3.19 9.55-3.19z"/><path d="M360.58 715.18a23.68 23.68 0 00-8.58.82 21.41 21.41 0 01-6 .56c-6.81.12-13.61.63-20.43.29a21.81 21.81 0 01-5.7-1c-1.08-.35-1.93-.82-1.65-2.11.25-1.12 1.14-1.31 2.16-1.23a89.82 89.82 0 0011.6-.24c3.48-.16 6.93-.65 10.4-.73a16.78 16.78 0 006.86-2c2.66-1.28 5.57-1.09 8.28-1.93.43-.13 1.15.07 1.32-.18 1.33-1.92 3.78-2.26 5.28-3.85a9.4 9.4 0 017.85-3.2c2.53.15 5.09-.22 7.64-.23a13.9 13.9 0 014.38.46 46.61 46.61 0 008.33 1.54 13.59 13.59 0 015.69 2 30.47 30.47 0 006.29 2.81c2.14.82 2.71 1.35 2.42 2.7s-2 2.47-3.58 2.51c-4 .09-8-.59-12-.69-4.83-.12-9.66-.1-14.49-.07-2.54 0-4.76 1.31-7.14 2-3.16.93-6.35 2.16-8.93 1.77zM637.4 666.71a41.28 41.28 0 019.69 1.13c4 .91 8 1.93 10.63 5.74 3.07 4.52 1.57 7.22-3.3 9.86a6.5 6.5 0 01-6.37-.15 38.88 38.88 0 01-6-3.41 2.59 2.59 0 00-2-.88c-2.06.38-3.89-.7-5.91-.79-3.72-.16-6.2-3.55-5.67-7.34.21-1.47-.32-2.15-1.38-3.18-3.34-3.27-7.62-3.69-11.79-4.61a12.44 12.44 0 01-1.61-.34c-.56-.2-1.57 0-1.57-.82 0-1 1-1.19 1.86-1.2.45 0 .92.21 1.33-.08 2.84-2 6.27-1.7 9.43-2.43a29.42 29.42 0 018.21-.51 5.61 5.61 0 015.65 5c.26 1.47-1.07 2.3-1.2 4.01zM186.39 530.81a11.19 11.19 0 018.29 3.55 26.77 26.77 0 015.7 9.21 19 19 0 001.93 3.95c1.66 2.35 2 5.26 3.66 7.65a47.32 47.32 0 003.13 4.83c2 2.25 1.12 4.31-1.94 4.79a5.58 5.58 0 01-2.18-.19 22 22 0 01-9.32-4.46c-1.44-1.26-3.16-2.19-4.49-3.62a5.68 5.68 0 01-1.75-2.43 2.11 2.11 0 00-.95-1.32c-3.5-2.14-5.15-5.72-6.68-9.2-.95-2.17-2.11-4.49-1.8-7.06.35-2.92 3.57-5.78 6.4-5.7zM78.59 637.5a6.4 6.4 0 01-3.38-.3 4.39 4.39 0 00-2.72-.21c-2.19.62-4.47.42-6.7.79-3 .51-6.45.82-9.21-1.54a7.45 7.45 0 01-2.18-3.15 4.3 4.3 0 012-5.14c4.51-2.53 9-2.21 13.67-.34 3.41 1.36 6.56 3.21 9.87 4.76 1.57.73 3 1.65 4.87 1.69a3.74 3.74 0 011.93 1 2.35 2.35 0 01.83 3.15c-.77 1.14-1.82 1.1-2.93.56-2.03-1.02-4.24-1.06-6.05-1.27zM610.6 637.29c1.2.43 2.68.12 4.13.38 3.71.69 5.44 2.6 5.7 6.33a4.13 4.13 0 01-2.82 4c-2.58.85-5.16 1.34-7.78.11a12.2 12.2 0 00-5.1-.75 20.15 20.15 0 01-6.45-.88c-2-.72-2.2-1.49-.78-3a19.87 19.87 0 0113.1-6.19zM175 565.7a1.26 1.26 0 00-1.3 0c-1.61 1.24-3.14.4-4.68-.15-1.38-.48-2.7-1.12-4.11-1.56-2.89-.9-5.64-5.74-4.33-8.55.91-2 2.64-3.51 4.83-3.3a9 9 0 015.07 1.91c2.28 1.9 3.84 4.43 5.82 6.58a6.15 6.15 0 01.85 2.6c.54 2.09.06 2.63-2.15 2.47zM70.62 658.64a12.48 12.48 0 01-4.09-.73 4.27 4.27 0 01-3-3.3 3.5 3.5 0 012-3.9 11.93 11.93 0 019.77-1.32c.7.21 1.36.6 2.08.74 1.65.32 2.18 1.58 2.5 2.94s-.84 1.82-1.73 2.48c-2.3 1.67-4.64 3.04-7.53 3.09zM160.26 714.12c-1.24.08-2.32-.56-3.47-.83s-1.49-1.56-.74-2.65c1.54-2.28 5.8-1.41 6.85.09a2.1 2.1 0 01-1 3.17 8 8 0 01-1.64.22zM45.08 692.38c-2.39 0-3.27-.58-3.31-1.92s1-2.19 2.6-2.27a7.77 7.77 0 01.83 0c1.77.11 2.61.72 2.55 1.87a2.64 2.64 0 01-2.67 2.29c-.18.05-.37.03 0 .03zM308.72 710.24c1.9.15 2.58.71 2.54 2.11a2.4 2.4 0 01-2.6 2.54 2.59 2.59 0 01-2.5-2.95c.13-1.26.97-1.82 2.56-1.7zM466.74 513.32a22.8 22.8 0 01-1.59 5c-.48.88-4.19 2.45-5.11 2.22a.87.87 0 01-.65-.79 2.49 2.49 0 01.06-1.09c.81-2.22 1.55-4.48 2.53-6.63a2.65 2.65 0 013.2-1.53c1.29.41 1.6 1.41 1.56 2.82zM575.05 322.73c3.44-1 6.57.36 9.78.42a1.83 1.83 0 011.77 1.13c.27.71-.26 1.29-.73 1.68-2.26 1.91-2.2 2.71-5.23 1.1-1.46-.77-2.95-1.49-4.38-2.32a2 2 0 01-1.21-2.01z"/></svg>