{
	"asset":{
		"version":"2.0",
		"generator":"Created using the official Cinema 4D glTF Exporter 1.000x284978"
	},
	"scenes":[{
		"nodes":[0]
	}],
	"nodes":[{
		"name":"Ship",
		"translation":[-0.016159726306796075,
		105.57137298583985,
		0.45469439029693606],
		"rotation":[0.0,
		0.0,
		0.0,
		-1.0],
		"scale":[1.0,
		1.0,
		1.0],
		"children":[1,
		2,
		3,
		8,
		11,
		14]
	},
	{
		"name":"Tube.1",
		"translation":[0.016159726306796075,
		157.33639526367188,
		-0.45469439029693606],
		"rotation":[0.0,
		0.0,
		0.0,
		-1.0],
		"scale":[1.0,
		1.0,
		1.0],
		"mesh":0
	},
	{
		"name":"Tube",
		"translation":[0.016159726306796075,
		-95.0260238647461,
		-0.45469439029693606],
		"rotation":[0.0,
		0.0,
		0.0,
		-1.0],
		"scale":[1.0,
		1.0,
		1.0],
		"mesh":1
	},
	{
		"name":"Cloner",
		"translation":[0.016159726306796075,
		-77.89218139648438,
		2.513937473297119],
		"rotation":[0.0,
		0.0,
		0.0,
		-1.0],
		"scale":[1.0,
		1.0,
		1.0],
		"children":[4,
		5,
		6,
		7]
	},
	{
		"name":"Extrude 0",
		"mesh":2
	},
	{
		"name":"Extrude 1",
		"translation":[0.0,
		0.0,
		0.0],
		"rotation":[0.0,
		-0.7071067690849304,
		0.0,
		0.7071067690849304],
		"scale":[1.0,
		1.0,
		1.0],
		"mesh":3
	},
	{
		"name":"Extrude 2",
		"translation":[0.0,
		0.0,
		0.0],
		"rotation":[0.0,
		-1.0,
		0.0,
		-6.123234262925839e-17],
		"scale":[1.0,
		1.0,
		1.0],
		"mesh":4
	},
	{
		"name":"Extrude 3",
		"translation":[0.0,
		0.0,
		0.0],
		"rotation":[0.0,
		-0.7071067690849304,
		0.0,
		-0.7071067690849304],
		"scale":[1.0,
		1.0,
		1.0],
		"mesh":5
	},
	{
		"name":"Null.1",
		"translation":[64.92761993408203,
		60.57658767700195,
		-0.5749271512031555],
		"rotation":[0.0,
		-1.0,
		0.0,
		-6.123234262925839e-17],
		"scale":[1.0,
		1.0,
		1.0],
		"children":[9,
		10]
	},
	{
		"name":"Cylinder",
		"translation":[0.4887338876724243,
		-0.32380062341690066,
		-0.12023275345563889],
		"rotation":[0.0,
		0.0,
		0.042329926043748859,
		-0.9991036653518677],
		"scale":[1.0,
		1.0,
		1.0],
		"mesh":6
	},
	{
		"name":"Torus",
		"translation":[-0.4887338876724243,
		0.32380062341690066,
		0.12023275345563889],
		"rotation":[0.0,
		0.0,
		0.03966977074742317,
		-0.9992128610610962],
		"scale":[1.0,
		1.0,
		1.0],
		"mesh":7
	},
	{
		"name":"Null",
		"translation":[-64.99225616455078,
		60.57658767700195,
		-0.5749271512031555],
		"rotation":[0.0,
		0.0,
		0.0,
		-1.0],
		"scale":[1.0,
		1.0,
		1.0],
		"children":[12,
		13]
	},
	{
		"name":"Cylinder",
		"translation":[0.4887338876724243,
		-0.32380062341690066,
		-0.12023275345563889],
		"rotation":[0.0,
		0.0,
		0.042329926043748859,
		-0.9991036653518677],
		"scale":[1.0,
		1.0,
		1.0],
		"mesh":8
	},
	{
		"name":"Torus",
		"translation":[-0.4887338876724243,
		0.32380062341690066,
		0.12023275345563889],
		"rotation":[0.0,
		0.0,
		0.03966977074742317,
		-0.9992128610610962],
		"scale":[1.0,
		1.0,
		1.0],
		"mesh":9
	},
	{
		"name":"Loft",
		"translation":[0.016159726306796075,
		-105.57137298583985,
		-0.45469439029693606],
		"rotation":[0.0,
		0.0,
		0.0,
		-1.0],
		"scale":[1.0,
		1.0,
		1.0],
		"children":[15]
	},
	{
		"name":"Loft",
		"mesh":10
	}],
	"meshes":[{
		"name":"Tube.1",
		"primitives":[{
			"attributes":{
				"POSITION":1,
				"NORMAL":2,
				"TEXCOORD_0":3
			},
			"indices":0,
			"material":0
		}]
	},
	{
		"name":"Tube",
		"primitives":[{
			"attributes":{
				"POSITION":5,
				"NORMAL":6,
				"TEXCOORD_0":7
			},
			"indices":4,
			"material":1
		}]
	},
	{
		"name":"Extrude 0",
		"primitives":[{
			"attributes":{
				"POSITION":9,
				"TEXCOORD_0":10
			},
			"indices":8,
			"material":2
		}]
	},
	{
		"name":"Extrude 1",
		"primitives":[{
			"attributes":{
				"POSITION":12,
				"TEXCOORD_0":13
			},
			"indices":11,
			"material":3
		}]
	},
	{
		"name":"Extrude 2",
		"primitives":[{
			"attributes":{
				"POSITION":15,
				"TEXCOORD_0":16
			},
			"indices":14,
			"material":4
		}]
	},
	{
		"name":"Extrude 3",
		"primitives":[{
			"attributes":{
				"POSITION":18,
				"TEXCOORD_0":19
			},
			"indices":17,
			"material":5
		}]
	},
	{
		"name":"Cylinder",
		"primitives":[{
			"attributes":{
				"POSITION":21,
				"NORMAL":22,
				"TEXCOORD_0":23
			},
			"indices":20,
			"material":6
		}]
	},
	{
		"name":"Torus",
		"primitives":[{
			"attributes":{
				"POSITION":25,
				"NORMAL":26,
				"TEXCOORD_0":27
			},
			"indices":24,
			"material":7
		}]
	},
	{
		"name":"Cylinder",
		"primitives":[{
			"attributes":{
				"POSITION":29,
				"NORMAL":30,
				"TEXCOORD_0":31
			},
			"indices":28,
			"material":8
		}]
	},
	{
		"name":"Torus",
		"primitives":[{
			"attributes":{
				"POSITION":33,
				"NORMAL":34,
				"TEXCOORD_0":35
			},
			"indices":32,
			"material":9
		}]
	},
	{
		"name":"Loft",
		"primitives":[{
			"attributes":{
				"POSITION":37,
				"NORMAL":38,
				"TEXCOORD_0":39
			},
			"indices":36,
			"material":10
		}]
	}],
	"accessors":[{
		"bufferView":0,
		"type":"SCALAR",
		"min":[0],
		"componentType":5123,
		"count":1728,
		"byteOffset":0,
		"max":[579]
	},
	{
		"bufferView":1,
		"type":"VEC3",
		"min":[-41.054443359375,
		-9.250944137573243,
		-41.054443359375],
		"componentType":5126,
		"count":580,
		"byteOffset":0,
		"max":[41.054443359375,
		9.250944137573243,
		41.054443359375]
	},
	{
		"bufferView":1,
		"type":"VEC3",
		"min":[-0.9998266100883484,
		-1.0,
		-0.9998265504837036],
		"componentType":5126,
		"count":580,
		"byteOffset":12,
		"max":[0.9998266100883484,
		1.0,
		0.9998265504837036]
	},
	{
		"bufferView":1,
		"type":"VEC2",
		"min":[-0.020839255303144456,
		-0.07882489264011383],
		"componentType":5126,
		"count":580,
		"byteOffset":24,
		"max":[1.0208392143249512,
		1.0208392143249512]
	},
	{
		"bufferView":2,
		"type":"SCALAR",
		"min":[0],
		"componentType":5123,
		"count":27840,
		"byteOffset":0,
		"max":[6954]
	},
	{
		"bufferView":3,
		"type":"VEC3",
		"min":[-46.60472869873047,
		-5.865725040435791,
		-46.60472869873047],
		"componentType":5126,
		"count":6955,
		"byteOffset":0,
		"max":[46.60472869873047,
		5.865725040435791,
		46.60472869873047]
	},
	{
		"bufferView":3,
		"type":"VEC3",
		"min":[-0.9995884895324707,
		-1.0,
		-0.9995884895324707],
		"componentType":5126,
		"count":6955,
		"byteOffset":12,
		"max":[0.9995884895324707,
		1.0,
		0.9995884895324707]
	},
	{
		"bufferView":3,
		"type":"VEC2",
		"min":[-0.019305551424622537,
		-0.13883057236671449],
		"componentType":5126,
		"count":6955,
		"byteOffset":24,
		"max":[1.0192248821258546,
		1.0192248821258546]
	},
	{
		"bufferView":4,
		"type":"SCALAR",
		"min":[0],
		"componentType":5123,
		"count":48,
		"byteOffset":0,
		"max":[21]
	},
	{
		"bufferView":5,
		"type":"VEC3",
		"min":[-91.16572570800781,
		-43.252777099609378,
		-6.0],
		"componentType":5126,
		"count":22,
		"byteOffset":0,
		"max":[-38.54064178466797,
		55.37910079956055,
		0.0]
	},
	{
		"bufferView":5,
		"type":"VEC2",
		"min":[0.0,
		0.0],
		"componentType":5126,
		"count":22,
		"byteOffset":12,
		"max":[1.0,
		1.0]
	},
	{
		"bufferView":6,
		"type":"SCALAR",
		"min":[0],
		"componentType":5123,
		"count":48,
		"byteOffset":0,
		"max":[21]
	},
	{
		"bufferView":7,
		"type":"VEC3",
		"min":[-91.16572570800781,
		-43.252777099609378,
		-6.0],
		"componentType":5126,
		"count":22,
		"byteOffset":0,
		"max":[-38.54064178466797,
		55.37910079956055,
		0.0]
	},
	{
		"bufferView":7,
		"type":"VEC2",
		"min":[0.0,
		0.0],
		"componentType":5126,
		"count":22,
		"byteOffset":12,
		"max":[1.0,
		1.0]
	},
	{
		"bufferView":8,
		"type":"SCALAR",
		"min":[0],
		"componentType":5123,
		"count":48,
		"byteOffset":0,
		"max":[21]
	},
	{
		"bufferView":9,
		"type":"VEC3",
		"min":[-91.16572570800781,
		-43.252777099609378,
		-6.0],
		"componentType":5126,
		"count":22,
		"byteOffset":0,
		"max":[-38.54064178466797,
		55.37910079956055,
		0.0]
	},
	{
		"bufferView":9,
		"type":"VEC2",
		"min":[0.0,
		0.0],
		"componentType":5126,
		"count":22,
		"byteOffset":12,
		"max":[1.0,
		1.0]
	},
	{
		"bufferView":10,
		"type":"SCALAR",
		"min":[0],
		"componentType":5123,
		"count":48,
		"byteOffset":0,
		"max":[21]
	},
	{
		"bufferView":11,
		"type":"VEC3",
		"min":[-91.16572570800781,
		-43.252777099609378,
		-6.0],
		"componentType":5126,
		"count":22,
		"byteOffset":0,
		"max":[-38.54064178466797,
		55.37910079956055,
		0.0]
	},
	{
		"bufferView":11,
		"type":"VEC2",
		"min":[0.0,
		0.0],
		"componentType":5126,
		"count":22,
		"byteOffset":12,
		"max":[1.0,
		1.0]
	},
	{
		"bufferView":12,
		"type":"SCALAR",
		"min":[0],
		"componentType":5123,
		"count":11808,
		"byteOffset":0,
		"max":[2484]
	},
	{
		"bufferView":13,
		"type":"VEC3",
		"min":[-4.418333530426025,
		-22.081485748291017,
		-22.081485748291017],
		"componentType":5126,
		"count":2485,
		"byteOffset":0,
		"max":[4.418333530426025,
		22.081485748291017,
		22.081485748291017]
	},
	{
		"bufferView":13,
		"type":"VEC3",
		"min":[-1.0,
		-0.9999999403953552,
		-0.9999999403953552],
		"componentType":5126,
		"count":2485,
		"byteOffset":12,
		"max":[1.0,
		0.9999999403953552,
		0.9999999403953552]
	},
	{
		"bufferView":13,
		"type":"VEC2",
		"min":[-0.04575710743665695,
		-0.04575710743665695],
		"componentType":5126,
		"count":2485,
		"byteOffset":24,
		"max":[1.0457570552825928,
		1.0457570552825928]
	},
	{
		"bufferView":14,
		"type":"SCALAR",
		"min":[0],
		"componentType":5123,
		"count":3072,
		"byteOffset":0,
		"max":[560]
	},
	{
		"bufferView":15,
		"type":"VEC3",
		"min":[-4.765106201171875,
		-30.726165771484376,
		-30.726165771484376],
		"componentType":5126,
		"count":561,
		"byteOffset":0,
		"max":[4.765106201171875,
		30.726165771484376,
		30.726165771484376]
	},
	{
		"bufferView":15,
		"type":"VEC3",
		"min":[-0.9999786615371704,
		-1.0,
		-1.0],
		"componentType":5126,
		"count":561,
		"byteOffset":12,
		"max":[0.9999786615371704,
		1.0,
		1.0]
	},
	{
		"bufferView":15,
		"type":"VEC2",
		"min":[0.0,
		0.0],
		"componentType":5126,
		"count":561,
		"byteOffset":24,
		"max":[1.0,
		1.0]
	},
	{
		"bufferView":16,
		"type":"SCALAR",
		"min":[0],
		"componentType":5123,
		"count":11808,
		"byteOffset":0,
		"max":[2484]
	},
	{
		"bufferView":17,
		"type":"VEC3",
		"min":[-4.418333530426025,
		-22.081485748291017,
		-22.081485748291017],
		"componentType":5126,
		"count":2485,
		"byteOffset":0,
		"max":[4.418333530426025,
		22.081485748291017,
		22.081485748291017]
	},
	{
		"bufferView":17,
		"type":"VEC3",
		"min":[-1.0,
		-0.9999999403953552,
		-0.9999999403953552],
		"componentType":5126,
		"count":2485,
		"byteOffset":12,
		"max":[1.0,
		0.9999999403953552,
		0.9999999403953552]
	},
	{
		"bufferView":17,
		"type":"VEC2",
		"min":[-0.04575710743665695,
		-0.04575710743665695],
		"componentType":5126,
		"count":2485,
		"byteOffset":24,
		"max":[1.0457570552825928,
		1.0457570552825928]
	},
	{
		"bufferView":18,
		"type":"SCALAR",
		"min":[0],
		"componentType":5123,
		"count":3072,
		"byteOffset":0,
		"max":[560]
	},
	{
		"bufferView":19,
		"type":"VEC3",
		"min":[-4.765106201171875,
		-30.726165771484376,
		-30.726165771484376],
		"componentType":5126,
		"count":561,
		"byteOffset":0,
		"max":[4.765106201171875,
		30.726165771484376,
		30.726165771484376]
	},
	{
		"bufferView":19,
		"type":"VEC3",
		"min":[-0.9999786615371704,
		-1.0,
		-1.0],
		"componentType":5126,
		"count":561,
		"byteOffset":12,
		"max":[0.9999786615371704,
		1.0,
		1.0]
	},
	{
		"bufferView":19,
		"type":"VEC2",
		"min":[0.0,
		0.0],
		"componentType":5126,
		"count":561,
		"byteOffset":24,
		"max":[1.0,
		1.0]
	},
	{
		"bufferView":20,
		"type":"SCALAR",
		"min":[0],
		"componentType":5123,
		"count":1236,
		"byteOffset":0,
		"max":[252]
	},
	{
		"bufferView":21,
		"type":"VEC3",
		"min":[-68.32695770263672,
		-1.5098758935928345,
		-68.32695770263672],
		"componentType":5126,
		"count":253,
		"byteOffset":0,
		"max":[68.32695770263672,
		313.7691650390625,
		68.32695770263672]
	},
	{
		"bufferView":21,
		"type":"VEC3",
		"min":[-0.9974620342254639,
		-0.9908051490783691,
		-0.9974620342254639],
		"componentType":5126,
		"count":253,
		"byteOffset":12,
		"max":[0.9974620342254639,
		1.0,
		0.9974620342254639]
	},
	{
		"bufferView":21,
		"type":"VEC2",
		"min":[0.0,
		0.0],
		"componentType":5126,
		"count":253,
		"byteOffset":24,
		"max":[1.0,
		1.0]
	}],
	"bufferViews":[{
		"buffer":0,
		"byteOffset":0,
		"byteLength":3456,
		"target":34963
	},
	{
		"buffer":0,
		"byteOffset":3456,
		"byteLength":18560,
		"target":34962,
		"byteStride":32
	},
	{
		"buffer":1,
		"byteOffset":0,
		"byteLength":55680,
		"target":34963
	},
	{
		"buffer":1,
		"byteOffset":55680,
		"byteLength":222560,
		"target":34962,
		"byteStride":32
	},
	{
		"buffer":2,
		"byteOffset":0,
		"byteLength":96,
		"target":34963
	},
	{
		"buffer":2,
		"byteOffset":96,
		"byteLength":440,
		"target":34962,
		"byteStride":20
	},
	{
		"buffer":3,
		"byteOffset":0,
		"byteLength":96,
		"target":34963
	},
	{
		"buffer":3,
		"byteOffset":96,
		"byteLength":440,
		"target":34962,
		"byteStride":20
	},
	{
		"buffer":4,
		"byteOffset":0,
		"byteLength":96,
		"target":34963
	},
	{
		"buffer":4,
		"byteOffset":96,
		"byteLength":440,
		"target":34962,
		"byteStride":20
	},
	{
		"buffer":5,
		"byteOffset":0,
		"byteLength":96,
		"target":34963
	},
	{
		"buffer":5,
		"byteOffset":96,
		"byteLength":440,
		"target":34962,
		"byteStride":20
	},
	{
		"buffer":6,
		"byteOffset":0,
		"byteLength":23616,
		"target":34963
	},
	{
		"buffer":6,
		"byteOffset":23616,
		"byteLength":79520,
		"target":34962,
		"byteStride":32
	},
	{
		"buffer":7,
		"byteOffset":0,
		"byteLength":6144,
		"target":34963
	},
	{
		"buffer":7,
		"byteOffset":6144,
		"byteLength":17952,
		"target":34962,
		"byteStride":32
	},
	{
		"buffer":8,
		"byteOffset":0,
		"byteLength":23616,
		"target":34963
	},
	{
		"buffer":8,
		"byteOffset":23616,
		"byteLength":79520,
		"target":34962,
		"byteStride":32
	},
	{
		"buffer":9,
		"byteOffset":0,
		"byteLength":6144,
		"target":34963
	},
	{
		"buffer":9,
		"byteOffset":6144,
		"byteLength":17952,
		"target":34962,
		"byteStride":32
	},
	{
		"buffer":10,
		"byteOffset":0,
		"byteLength":2472,
		"target":34963
	},
	{
		"buffer":10,
		"byteOffset":2472,
		"byteLength":8096,
		"target":34962,
		"byteStride":32
	}],
	"buffers":[{
		"uri":"data:application/octet-stream;base64,",
		"byteLength":22016
	},
	{
		"uri":"data:application/octet-stream;base64,",
		"byteLength":278240
	},
	{
		"uri":"data:application/octet-stream;base64,",
		"byteLength":536
	},
	{
		"uri":"data:application/octet-stream;base64,",
		"byteLength":536
	},
	{
		"uri":"data:application/octet-stream;base64,",
		"byteLength":536
	},
	{
		"uri":"data:application/octet-stream;base64,",
		"byteLength":536
	},
	{
		"uri":"data:application/octet-stream;base64,",
		"byteLength":103136
	},
	{
		"uri":"data:application/octet-stream;base64,",
		"byteLength":24096
	},
	{
		"uri":"data:application/octet-stream;base64,",
		"byteLength":103136
	},
	{
		"uri":"data:application/octet-stream;base64,",
		"byteLength":24096
	},
	{
		"uri":"data:application/octet-stream;base64,",
		"byteLength":10568
	}],
	"materials":[{
		"pbrMetallicRoughness":{
			"baseColorFactor":[0.8,
			0.8,
			0.8,
			1.0],
			"metallicFactor":0.0,
			"roughnessFactor":0.5
		},
		"emissiveFactor":[0.0,
		0.0,
		0.0],
		"alphaMode":"OPAQUE",
		"doubleSided":false,
		"name":"Tube.1"
	},
	{
		"pbrMetallicRoughness":{
			"baseColorFactor":[0.8,
			0.8,
			0.8,
			1.0],
			"metallicFactor":0.0,
			"roughnessFactor":0.5
		},
		"emissiveFactor":[0.0,
		0.0,
		0.0],
		"alphaMode":"OPAQUE",
		"doubleSided":false,
		"name":"Tube"
	},
	{
		"pbrMetallicRoughness":{
			"baseColorFactor":[0.8,
			0.8,
			0.8,
			1.0],
			"metallicFactor":0.0,
			"roughnessFactor":0.5
		},
		"emissiveFactor":[0.0,
		0.0,
		0.0],
		"alphaMode":"OPAQUE",
		"doubleSided":false,
		"name":"Extrude 0"
	},
	{
		"pbrMetallicRoughness":{
			"baseColorFactor":[0.8,
			0.8,
			0.8,
			1.0],
			"metallicFactor":0.0,
			"roughnessFactor":0.5
		},
		"emissiveFactor":[0.0,
		0.0,
		0.0],
		"alphaMode":"OPAQUE",
		"doubleSided":false,
		"name":"Extrude 1"
	},
	{
		"pbrMetallicRoughness":{
			"baseColorFactor":[0.8,
			0.8,
			0.8,
			1.0],
			"metallicFactor":0.0,
			"roughnessFactor":0.5
		},
		"emissiveFactor":[0.0,
		0.0,
		0.0],
		"alphaMode":"OPAQUE",
		"doubleSided":false,
		"name":"Extrude 2"
	},
	{
		"pbrMetallicRoughness":{
			"baseColorFactor":[0.8,
			0.8,
			0.8,
			1.0],
			"metallicFactor":0.0,
			"roughnessFactor":0.5
		},
		"emissiveFactor":[0.0,
		0.0,
		0.0],
		"alphaMode":"OPAQUE",
		"doubleSided":false,
		"name":"Extrude 3"
	},
	{
		"pbrMetallicRoughness":{
			"baseColorFactor":[0.8,
			0.8,
			0.8,
			1.0],
			"metallicFactor":0.0,
			"roughnessFactor":0.5
		},
		"emissiveFactor":[0.0,
		0.0,
		0.0],
		"alphaMode":"OPAQUE",
		"doubleSided":false,
		"name":"Cylinder.1"
	},
	{
		"pbrMetallicRoughness":{
			"baseColorFactor":[0.8,
			0.8,
			0.8,
			1.0],
			"metallicFactor":0.0,
			"roughnessFactor":0.5
		},
		"emissiveFactor":[0.0,
		0.0,
		0.0],
		"alphaMode":"OPAQUE",
		"doubleSided":false,
		"name":"Torus.1"
	},
	{
		"pbrMetallicRoughness":{
			"baseColorFactor":[0.8,
			0.8,
			0.8,
			1.0],
			"metallicFactor":0.0,
			"roughnessFactor":0.5
		},
		"emissiveFactor":[0.0,
		0.0,
		0.0],
		"alphaMode":"OPAQUE",
		"doubleSided":false,
		"name":"Cylinder"
	},
	{
		"pbrMetallicRoughness":{
			"baseColorFactor":[0.8,
			0.8,
			0.8,
			1.0],
			"metallicFactor":0.0,
			"roughnessFactor":0.5
		},
		"emissiveFactor":[0.0,
		0.0,
		0.0],
		"alphaMode":"OPAQUE",
		"doubleSided":false,
		"name":"Torus"
	},
	{
		"pbrMetallicRoughness":{
			"baseColorFactor":[0.8,
			0.8,
			0.8,
			1.0],
			"metallicFactor":0.0,
			"roughnessFactor":0.5
		},
		"emissiveFactor":[0.0,
		0.0,
		0.0],
		"alphaMode":"OPAQUE",
		"doubleSided":false,
		"name":"Loft"
	}]
}