{
	"asset":{
		"version":"2.0",
		"generator":"Created using the official Cinema 4D glTF Exporter 1.000x284978"
	},
	"scenes":[{
		"nodes":[0]
	}],
	"nodes":[{
		"name":"Saturn",
		"translation":[-6.38378239159465e-16,
		-105.0,
		0.0],
		"rotation":[0.0,
		0.0,
		0.08280625194311142,
		0.9965656399726868],
		"scale":[1.0,
		1.0,
		1.0],
		"children":[1,
		2,
		3,
		4,
		5,
		6]
	},
	{
		"name":"Tube",
		"translation":[-1.4654943925052067e-14,
		120.0,
		0.0],
		"rotation":[0.0,
		0.0,
		0.0,
		-1.0],
		"scale":[1.0,
		1.0,
		1.0],
		"mesh":0
	},
	{
		"name":"Tube.1",
		"translation":[-1.4654943925052067e-14,
		120.0,
		0.0],
		"rotation":[0.0,
		0.0,
		0.0,
		-1.0],
		"scale":[1.0,
		1.0,
		1.0],
		"mesh":1
	},
	{
		"name":"Sphere",
		"translation":[-1.4654943925052067e-14,
		120.0,
		0.0],
		"rotation":[0.0,
		0.0,
		0.0,
		-1.0],
		"scale":[1.0,
		1.0,
		1.0],
		"mesh":2
	},
	{
		"name":"Sphere.1",
		"translation":[-205.0,
		191.64126586914063,
		0.0],
		"rotation":[0.0,
		0.0,
		0.0,
		-1.0],
		"scale":[1.0,
		1.0,
		1.0],
		"mesh":3
	},
	{
		"name":"Sphere.2",
		"translation":[-185.0,
		228.60801696777345,
		0.0],
		"rotation":[0.0,
		0.0,
		0.0,
		-1.0],
		"scale":[1.0,
		1.0,
		1.0],
		"mesh":4
	},
	{
		"name":"Sphere.3",
		"translation":[-215.5728302001953,
		243.60801696777345,
		-25.0],
		"rotation":[0.0,
		0.0,
		0.0,
		-1.0],
		"scale":[1.0,
		1.0,
		1.0],
		"mesh":5
	}],
	"meshes":[{
		"name":"Tube",
		"primitives":[{
			"attributes":{
				"POSITION":1,
				"NORMAL":2,
				"TEXCOORD_0":3
			},
			"indices":0,
			"material":0
		}]
	},
	{
		"name":"Tube.1",
		"primitives":[{
			"attributes":{
				"POSITION":5,
				"NORMAL":6,
				"TEXCOORD_0":7
			},
			"indices":4,
			"material":0
		}]
	},
	{
		"name":"Sphere",
		"primitives":[{
			"attributes":{
				"POSITION":9,
				"NORMAL":10,
				"TEXCOORD_0":11
			},
			"indices":8,
			"material":0
		}]
	},
	{
		"name":"Sphere.1",
		"primitives":[{
			"attributes":{
				"POSITION":13,
				"NORMAL":14,
				"TEXCOORD_0":15
			},
			"indices":12,
			"material":0
		}]
	},
	{
		"name":"Sphere.2",
		"primitives":[{
			"attributes":{
				"POSITION":17,
				"NORMAL":18,
				"TEXCOORD_0":19
			},
			"indices":16,
			"material":0
		}]
	},
	{
		"name":"Sphere.3",
		"primitives":[{
			"attributes":{
				"POSITION":21,
				"NORMAL":22,
				"TEXCOORD_0":23
			},
			"indices":20,
			"material":0
		}]
	}],
	"accessors":[{
		"max":[409],
		"bufferView":0,
		"type":"SCALAR",
		"byteOffset":0,
		"componentType":5123,
		"count":1440,
		"min":[0]
	},
	{
		"max":[170.0,
		2.0,
		170.0],
		"bufferView":1,
		"type":"VEC3",
		"byteOffset":0,
		"componentType":5126,
		"count":410,
		"min":[-170.0,
		-2.0,
		-170.0]
	},
	{
		"max":[1.0,
		1.0,
		1.0],
		"bufferView":1,
		"type":"VEC3",
		"byteOffset":12,
		"componentType":5126,
		"count":410,
		"min":[-1.0,
		-1.0,
		-1.0]
	},
	{
		"max":[0.6653671264648438,
		0.9980506896972656],
		"bufferView":1,
		"type":"VEC2",
		"byteOffset":24,
		"componentType":5126,
		"count":410,
		"min":[0.0015986959915608168,
		0.0006512535037472844]
	},
	{
		"max":[409],
		"bufferView":2,
		"type":"SCALAR",
		"byteOffset":0,
		"componentType":5123,
		"count":1440,
		"min":[0]
	},
	{
		"max":[220.0,
		2.0,
		220.0],
		"bufferView":3,
		"type":"VEC3",
		"byteOffset":0,
		"componentType":5126,
		"count":410,
		"min":[-220.0,
		-2.0,
		-220.0]
	},
	{
		"max":[0.9999999403953552,
		1.0,
		0.9999999403953552],
		"bufferView":3,
		"type":"VEC3",
		"byteOffset":12,
		"componentType":5126,
		"count":410,
		"min":[-0.9999999403953552,
		-1.0,
		-0.9999999403953552]
	},
	{
		"max":[0.6653671264648438,
		0.9980506896972656],
		"bufferView":3,
		"type":"VEC2",
		"byteOffset":24,
		"componentType":5126,
		"count":410,
		"min":[0.0015895087271928788,
		0.0006512537365779281]
	},
	{
		"max":[324],
		"bufferView":4,
		"type":"SCALAR",
		"byteOffset":0,
		"componentType":5123,
		"count":1584,
		"min":[0]
	},
	{
		"max":[100.0,
		100.0,
		100.0],
		"bufferView":5,
		"type":"VEC3",
		"byteOffset":0,
		"componentType":5126,
		"count":325,
		"min":[-100.0,
		-100.0,
		-100.0]
	},
	{
		"max":[1.0,
		1.0,
		1.0],
		"bufferView":5,
		"type":"VEC3",
		"byteOffset":12,
		"componentType":5126,
		"count":325,
		"min":[-1.0,
		-1.0,
		-1.0]
	},
	{
		"max":[0.9980506896972656,
		0.9980506896972656],
		"bufferView":5,
		"type":"VEC2",
		"byteOffset":24,
		"componentType":5126,
		"count":325,
		"min":[0.0007300708093680441,
		0.0006512528052553535]
	},
	{
		"max":[324],
		"bufferView":6,
		"type":"SCALAR",
		"byteOffset":0,
		"componentType":5123,
		"count":1584,
		"min":[0]
	},
	{
		"max":[15.0,
		15.0,
		15.0],
		"bufferView":7,
		"type":"VEC3",
		"byteOffset":0,
		"componentType":5126,
		"count":325,
		"min":[-15.0,
		-15.0,
		-15.0]
	},
	{
		"max":[1.0,
		1.0,
		1.0],
		"bufferView":7,
		"type":"VEC3",
		"byteOffset":12,
		"componentType":5126,
		"count":325,
		"min":[-1.0,
		-1.0,
		-1.0]
	},
	{
		"max":[0.9980506896972656,
		0.9980506896972656],
		"bufferView":7,
		"type":"VEC2",
		"byteOffset":24,
		"componentType":5126,
		"count":325,
		"min":[0.0007300708093680441,
		0.0006512528052553535]
	},
	{
		"max":[324],
		"bufferView":8,
		"type":"SCALAR",
		"byteOffset":0,
		"componentType":5123,
		"count":1584,
		"min":[0]
	},
	{
		"max":[8.25,
		8.25,
		8.25],
		"bufferView":9,
		"type":"VEC3",
		"byteOffset":0,
		"componentType":5126,
		"count":325,
		"min":[-8.25,
		-8.25,
		-8.25]
	},
	{
		"max":[1.0,
		1.0,
		1.0],
		"bufferView":9,
		"type":"VEC3",
		"byteOffset":12,
		"componentType":5126,
		"count":325,
		"min":[-1.0,
		-1.0,
		-1.0]
	},
	{
		"max":[0.9980506896972656,
		0.9980506896972656],
		"bufferView":9,
		"type":"VEC2",
		"byteOffset":24,
		"componentType":5126,
		"count":325,
		"min":[0.0007300708093680441,
		0.0006512528052553535]
	},
	{
		"max":[324],
		"bufferView":10,
		"type":"SCALAR",
		"byteOffset":0,
		"componentType":5123,
		"count":1584,
		"min":[0]
	},
	{
		"max":[8.25,
		8.25,
		8.25],
		"bufferView":11,
		"type":"VEC3",
		"byteOffset":0,
		"componentType":5126,
		"count":325,
		"min":[-8.25,
		-8.25,
		-8.25]
	},
	{
		"max":[1.0,
		1.0,
		1.0],
		"bufferView":11,
		"type":"VEC3",
		"byteOffset":12,
		"componentType":5126,
		"count":325,
		"min":[-1.0,
		-1.0,
		-1.0]
	},
	{
		"max":[0.9980506896972656,
		0.9980506896972656],
		"bufferView":11,
		"type":"VEC2",
		"byteOffset":24,
		"componentType":5126,
		"count":325,
		"min":[0.0007300708093680441,
		0.0006512528052553535]
	}],
	"bufferViews":[{
		"buffer":0,
		"byteOffset":0,
		"byteLength":2880,
		"target":34963
	},
	{
		"buffer":0,
		"byteOffset":2880,
		"byteLength":13120,
		"target":34962,
		"byteStride":32
	},
	{
		"buffer":1,
		"byteOffset":0,
		"byteLength":2880,
		"target":34963
	},
	{
		"buffer":1,
		"byteOffset":2880,
		"byteLength":13120,
		"target":34962,
		"byteStride":32
	},
	{
		"buffer":2,
		"byteOffset":0,
		"byteLength":3168,
		"target":34963
	},
	{
		"buffer":2,
		"byteOffset":3168,
		"byteLength":10400,
		"target":34962,
		"byteStride":32
	},
	{
		"buffer":3,
		"byteOffset":0,
		"byteLength":3168,
		"target":34963
	},
	{
		"buffer":3,
		"byteOffset":3168,
		"byteLength":10400,
		"target":34962,
		"byteStride":32
	},
	{
		"buffer":4,
		"byteOffset":0,
		"byteLength":3168,
		"target":34963
	},
	{
		"buffer":4,
		"byteOffset":3168,
		"byteLength":10400,
		"target":34962,
		"byteStride":32
	},
	{
		"buffer":5,
		"byteOffset":0,
		"byteLength":3168,
		"target":34963
	},
	{
		"buffer":5,
		"byteOffset":3168,
		"byteLength":10400,
		"target":34962,
		"byteStride":32
	}],
	"buffers":[{
		"uri":"data:application/octet-stream;base64,",
		"byteLength":16000
	},
	{
		"uri":"data:application/octet-stream;base64,",
		"byteLength":16000
	},
	{
		"uri":"data:application/octet-stream;base64,",
		"byteLength":13568
	},
	{
		"uri":"data:application/octet-stream;base64,",
		"byteLength":13568
	},
	{
		"uri":"data:application/octet-stream;base64,",
		"byteLength":13568
	},
	{
		"uri":"data:application/octet-stream;base64,",
		"byteLength":13568
	}],
	"images":[{
		"uri":"data:image/jpeg;base64,"
	}],
	"samplers":[{
		"magFilter":9729,
		"minFilter":9729,
		"wrapS":10497,
		"wrapT":10497
	}],
	"textures":[{
		"sampler":0,
		"source":0
	}],
	"materials":[{
		"pbrMetallicRoughness":{
			"baseColorTexture":{
				"index":0
			},
			"baseColorFactor":[0.8,
			0.8,
			0.8,
			1.0],
			"metallicFactor":0.0,
			"roughnessFactor":0.5
		},
		"emissiveFactor":[0.0,
		0.0,
		0.0],
		"alphaMode":"OPAQUE",
		"doubleSided":false,
		"name":"Sphere.1"
	}]
}